<?xml version="1.0" encoding="UTF-8" standalone="no"?><!DOCTYPE svg PUBLIC "-//W3C//DTD SVG 1.1//EN" "http://www.w3.org/Graphics/SVG/1.1/DTD/svg11.dtd"><svg width="100%" height="100%" viewBox="0 0 598 328" version="1.1" xmlns="http://www.w3.org/2000/svg" xmlns:xlink="http://www.w3.org/1999/xlink" xml:space="preserve" xmlns:serif="http://www.serif.com/" style="fill-rule:evenodd;clip-rule:evenodd;stroke-linejoin:round;stroke-miterlimit:2;"><rect id="Artboard1" x="0" y="0" width="597.403" height="327.294" style="fill:none;"/><path d="M312.424,263.802c2.033,10.3 2.284,20.383 2.06,30.486c-0.06,2.704 -1.979,3.333 -4.348,3.299c-2.537,-0.036 -3.935,-1.193 -3.956,-3.757c-0.038,-4.563 -0.011,-9.127 -0.98,-14.026c-1.911,2.715 -3.848,5.41 -5.725,8.147c-3.074,4.484 -4.384,4.526 -7.382,0.195c-1.743,-2.518 -3.514,-5.015 -5.63,-8.03c-1.982,4.608 -1.189,8.779 -1.172,12.825c0.011,2.764 -0.352,4.631 -3.724,4.661c-3.123,0.029 -4.825,-1.09 -4.729,-4.376c0.271,-9.359 0.416,-18.724 0.85,-28.076c0.167,-3.606 2.563,-4.465 5.546,-2.135c3.328,2.599 5.572,6.147 7.822,9.652c1.33,2.071 2.575,4.198 4.15,6.777c3.877,-5.156 7.214,-9.836 10.832,-14.29c1.489,-1.833 3.281,-4.339 6.387,-1.353Zm-266.674,-42.95c-5.205,-0.004 -9.964,0.025 -14.722,-0.028c-5.502,-0.062 -5.965,-0.444 -5.913,-5.818c0.214,-22.596 0.616,-45.191 0.712,-67.788c0.052,-12.32 -0.361,-24.642 -0.593,-36.963c-0.026,-1.348 -0.331,-2.761 1.174,-3.523c1.352,-0.684 2.203,0.286 3.085,1.099c9.386,8.668 18.694,17.423 28.211,25.946c3.578,3.204 5.162,6.68 5.122,11.605c-0.187,23.197 0.001,46.398 0.023,69.597c0.005,5.28 -0.595,5.833 -5.945,5.872c-3.57,0.026 -7.139,0 -11.154,-0.001Zm232.034,-151.689c-5.2,-0.01 -9.957,0.069 -14.707,-0.065c-2.861,-0.08 -3.989,1.05 -3.957,3.927c0.083,7.427 -0.129,14.857 0.001,22.282c0.06,3.446 -1.413,4.976 -4.713,4.935c-9.639,-0.12 -19.279,-0.188 -28.915,-0.45c-3.422,-0.092 -3.19,-2.828 -3.189,-5.268c0.007,-16.491 -0.101,-32.983 0.015,-49.474c0.079,-11.16 -2.252,-10.981 11.041,-10.865c26.588,0.236 53.177,0.468 79.765,0.528c10.839,0.024 21.683,-0.292 32.516,-0.68c3.779,-0.136 5.509,1.053 5.458,4.995c-0.112,8.764 -0.09,17.531 0.046,26.295c0.049,3.157 -1.319,4.174 -4.285,4.154c-22.877,-0.145 -45.753,-0.22 -69.076,-0.315Zm-82.107,212.108c0.021,1.771 0.079,3.109 0.054,4.445c-0.045,2.413 1.063,3.517 3.515,3.459c3.118,-0.074 6.24,0.013 9.361,0.005c2.501,-0.007 3.393,1.365 3.343,3.688c-0.047,2.219 -0.333,4.52 -3.066,4.588c-6.382,0.16 -12.775,0.107 -19.157,-0.083c-2.377,-0.071 -3.086,-1.953 -3.077,-4.134c0.04,-9.064 0.103,-18.13 0.064,-27.194c-0.016,-3.778 2.362,-4.288 5.314,-4.332c3.111,-0.046 3.64,1.919 3.635,4.411c-0.011,4.904 0.008,9.808 0.014,15.146Zm227.495,-191.874c-8.387,10.342 -12.678,22.09 -14.595,34.778c-1.142,7.562 1.188,14.722 3.321,21.8c5.868,19.47 19.254,32.02 37.614,39.572c4.463,1.837 9.399,2.634 14.19,3.52c2.55,0.471 3.619,1.476 3.602,4.039c-0.063,9.663 -0.095,19.328 -0.005,28.992c0.029,3.212 -1.456,4.255 -4.407,3.917c-30.388,-3.48 -55.849,-16.107 -73.756,-41.416c-9.339,-13.199 -15.158,-28.056 -16.805,-44.496c-2.302,-22.969 1.887,-44.554 14.195,-63.922c15.229,-23.967 37.257,-38.686 65.375,-43.872c3.792,-0.699 7.62,-1.205 11.43,-1.805c2.593,-0.408 3.932,0.525 3.92,3.318c-0.041,9.813 -0.044,19.626 0.028,29.439c0.019,2.564 -1.331,3.143 -3.563,3.473c-16.241,2.409 -29.643,10.005 -40.543,22.663Zm-183.964,56.122c-4.555,0.071 -8.707,0.066 -12.858,0.171c-3.03,0.077 -4.501,-0.632 -4.324,-4.323c0.406,-8.45 0.419,-16.938 0.131,-25.394c-0.151,-4.402 1.483,-5.536 5.638,-5.614c33.563,-0.635 67.119,0.585 100.678,0.251c2.817,-0.029 5.632,-0.093 8.448,-0.088c2.556,0.003 3.666,1.219 3.632,3.883c-0.112,8.914 -0.144,17.831 -0.029,26.744c0.04,3.097 -1.114,4.142 -4.197,4.13c-28.974,-0.111 -57.948,-0.118 -86.923,-0.12c-3.264,0 -6.528,0.217 -10.195,0.361Zm-147.43,146.873c-6.68,8.522 -21.629,6.388 -25.669,-2.274c-1.058,-2.267 -1.082,-4.565 -1.344,-6.916c-0.663,-5.941 -0.109,-11.884 -0.187,-17.823c-0.037,-2.809 1.357,-4.014 4.152,-3.91c2.769,0.104 3.991,1.351 3.94,4.177c-0.095,5.35 -0.106,10.706 0.027,16.054c0.142,5.7 2.857,8.389 7.831,8.057c3.7,-0.247 6.318,-4.136 5.76,-9.057c-0.592,-5.221 0.581,-10.375 0.278,-15.576c-0.198,-3.385 2.271,-3.841 4.767,-3.847c2.655,-0.006 3.722,1.696 3.379,4.156c-0.869,6.223 -0.303,12.473 -0.435,18.707c-0.062,2.936 -0.624,5.579 -2.498,8.251Zm462.892,-220.052c12.713,18.33 18.865,38.591 17.494,60.306c-1.668,26.414 -12.107,49.297 -32.071,67.421c-16.664,15.128 -36.157,23.46 -58.469,25.608c-3.074,0.295 -4.082,-0.817 -4.063,-3.618c0.062,-9.512 0.099,-19.024 0.127,-28.536c0.008,-2.757 1,-4.059 4.063,-4.617c22.801,-4.162 39.472,-16.771 48.795,-37.952c8.879,-20.172 4.468,-46.356 -10.864,-62.757c-10.267,-10.984 -22.309,-18.58 -37.376,-20.721c-3.67,-0.522 -4.924,-2.116 -4.814,-5.857c0.254,-8.612 0.141,-17.239 0.007,-25.858c-0.056,-3.646 1.224,-4.965 5.029,-4.703c25.818,1.773 46.672,13.466 64.214,31.829c2.762,2.891 5.169,6.123 7.928,9.456Zm-299.482,84.759c3.448,0.073 3.998,2.007 3.975,4.537c-0.057,6.244 -0.083,12.49 -0.021,18.733c0.062,6.157 0.116,6.155 6.135,6.154c27.954,-0.001 55.907,-0.004 83.861,-0.002c7.215,0.001 7.202,0.011 7.196,7.364c-0.007,7.137 -0.266,14.29 0.136,21.404c0.249,4.417 -1.245,5.693 -5.501,5.664c-22.303,-0.149 -44.607,-0.076 -66.91,-0.074c-18.883,0.002 -37.768,-0.103 -56.649,0.104c-4.239,0.046 -5.87,-1.115 -5.614,-5.502c1.05,-17.968 0.219,-35.961 0.375,-53.941c0.028,-3.228 1.245,-4.531 4.498,-4.493c9.366,0.11 18.734,0.039 28.52,0.051Zm-8.426,110.158c0.003,8.749 -0.024,17.071 0.023,25.393c0.016,2.8 -0.279,5.035 -3.987,4.929c-3.408,-0.098 -4.682,-1.564 -4.623,-4.966c0.145,-8.469 0.163,-16.945 -0.036,-25.411c-0.08,-3.397 0.795,-5.48 4.467,-5.644c3.837,-0.17 4.351,2.27 4.156,5.699Zm227.786,-136.965l46.365,0c-0.513,23.671 -20.677,45.74 -46.431,46.645l0,-20.322l-4.392,0l0,20.371c-26.421,-0.92 -46.276,-22.946 -46.943,-46.626l46.842,0l0,7.019l-38.591,0c1.919,7.297 5.167,13.746 10.223,19.215c6.088,6.585 13.549,10.83 22.406,12.906l0,-22.789l-16.067,0l5.64,5.726l0.264,-0.136l0,-2.79l6.694,0l0,14.168c-7.051,-0.483 -22.022,-14.932 -23.986,-23.26l33.508,0l0,10.445l4.387,0l0,-10.442l33.518,-0c-1.838,8.207 -16.28,22.176 -24.035,23.298l0,-14.192l6.721,0l0,2.754l0.278,0.152l5.647,-5.721l-16.118,0l0,22.773c6.994,-1.537 13.173,-4.627 18.609,-9.205c7.161,-6.031 11.622,-13.742 14.062,-22.832l-38.6,0l0,-7.156Zm-70.868,139.596c-3.25,-0.282 -4.396,0.976 -4.34,3.87c0.119,6.091 0,12.186 0.024,18.28c0.012,2.952 0.201,5.569 -4.197,5.635c-4.67,0.07 -4.435,-2.739 -4.408,-5.828c0.044,-5.202 0.05,-10.404 0.045,-15.605c-0.006,-6.019 -0.016,-6.105 -6.036,-6.299c-2.671,-0.087 -4.186,-0.965 -4.353,-3.829c-0.146,-2.51 0.673,-4.144 3.333,-4.198c7.279,-0.145 14.558,-0.244 21.838,-0.243c3.163,0 3.233,2.414 3.336,4.742c0.163,3.688 -2.429,3.44 -5.241,3.475Zm-300.132,-169.508c23.662,22.109 47.036,44.07 70.586,65.84c10.935,10.109 11.015,9.94 11.135,24.565c0.082,9.949 -0.419,19.91 0.505,29.846c0.126,1.357 0.192,2.901 -1.293,3.481c-1.692,0.66 -2.688,-0.814 -3.757,-1.812c-16.393,-15.314 -32.76,-30.654 -49.18,-45.94c-22.727,-21.158 -45.427,-42.345 -68.268,-63.38c-11.254,-10.365 -22.761,-20.456 -34.245,-30.568c-2.182,-1.921 -3.365,-3.962 -3.239,-6.899c0.59,-13.677 -0.581,-27.329 -0.66,-40.998c-0.01,-1.74 -0.576,-3.863 1.439,-4.779c2.136,-0.97 3.198,1.182 4.366,2.318c23.736,23.119 48.2,45.465 72.609,68.324Zm338.719,197.261c-3.41,0.071 -4.748,-1.505 -4.757,-4.381c-0.029,-9.194 -0.008,-18.39 -0.1,-27.583c-0.027,-2.659 1.232,-3.844 3.726,-3.875c6.23,-0.08 12.46,-0.139 18.69,-0.137c2.543,0.001 3.713,1.388 3.721,3.947c0.009,2.512 -1.121,4.037 -3.603,4.159c-3.553,0.174 -7.117,0.098 -10.677,0.141c-1.577,0.02 -3.132,0.265 -3.188,2.257c-0.059,2.087 1.354,2.797 3.22,2.816c2.373,0.024 4.748,-0.008 7.121,0.032c2.964,0.05 4.641,1.196 4.629,4.556c-0.011,3.356 -1.809,3.957 -4.542,3.876c-2.519,-0.076 -5.043,-0.022 -7.565,-0.03c-1.939,-0.006 -3.033,0.712 -3.004,2.896c0.029,2.077 0.863,2.951 2.936,2.923c3.412,-0.047 6.824,0.066 10.236,0.048c3.003,-0.014 4.7,0.977 4.6,4.424c-0.095,3.268 -1.788,3.98 -4.561,3.948c-5.489,-0.064 -10.979,-0.012 -16.883,-0.015Zm-293.986,-210.847c0.024,-15.758 0.032,-31.069 0.081,-46.38c0.019,-5.762 0.732,-6.438 6.414,-6.443c8.623,-0.007 17.246,0.095 25.865,-0.063c3.678,-0.068 4.758,1.2 4.75,4.974c-0.08,39.835 0.043,79.669 0.132,119.504c0.003,1.185 0.39,2.472 -0.892,3.192c-1.32,0.742 -2.245,-0.234 -3.117,-1.025c-9.121,-8.292 -17.9,-17.003 -27.471,-24.737c-5.303,-4.285 -6.015,-9.093 -5.847,-15.129c0.309,-11.141 0.086,-22.297 0.084,-33.892Zm321.726,39.386l-46.824,0c0.419,-22.522 19.429,-45.615 46.889,-46.678l0,20.349l4.368,0l0,-20.255c24.411,0.582 45.806,21.651 46.493,46.532l-46.354,0l0,-6.953l38.605,0c-2.002,-7.581 -5.413,-14.245 -10.773,-19.835c-6.03,-6.289 -13.332,-10.351 -21.906,-12.354l0,22.814l16.096,0l-5.622,-5.727l-0.23,0.104l0,2.804l-6.756,0l0,-14.175c7.168,0.605 22.091,14.998 23.993,23.266l-33.444,0l0,-10.418l-4.406,0l0,10.382l-33.719,0c4.83,-11.188 13.01,-18.763 24.211,-23.475l0,14.421l-6.715,0l0,-2.799l-0.295,-0.167l-5.607,5.42l0.272,0.346l15.767,0l0,-22.768c-7.441,1.664 -13.953,5.039 -19.595,10.096c-6.616,5.93 -10.74,13.352 -13.054,21.975l38.605,0l0,7.098Zm-333.993,140.756c3.724,3.977 6.575,8.343 10.933,11.797c1.648,-4.368 1.193,-8.55 1.099,-12.63c-0.079,-3.422 1.353,-5.095 4.61,-5.104c3.253,-0.008 3.756,2.405 3.763,4.957c0.021,9.072 0.001,18.142 -0.022,27.214c-0.005,1.826 -0.095,3.723 -2.305,4.306c-1.926,0.508 -3.381,-0.319 -4.664,-1.833c-4.982,-5.885 -10.045,-11.7 -15.989,-18.597c0,6.031 -0.087,10.973 0.031,15.91c0.074,3.077 -0.823,4.7 -4.29,4.647c-3.518,-0.054 -4.216,-1.916 -4.194,-4.853c0.066,-8.923 0.032,-17.847 0.068,-26.77c0.007,-1.77 -0.187,-3.768 1.732,-4.736c1.925,-0.972 3.478,0.463 4.849,1.448c1.547,1.112 2.778,2.663 4.379,4.244Zm208.634,-3.747c7.059,-2.383 8.14,-1.674 8.194,5.251c0.064,8.165 -0.026,16.331 0.051,24.496c0.029,3.095 -1.083,4.657 -4.401,4.692c-3.175,0.033 -4.109,-1.418 -4.082,-4.349c0.091,-9.933 0.043,-19.866 0.238,-30.089Zm158.028,34.456c-9.99,-0.018 -9.962,-0.018 -9.928,-9.376c0.027,-7.276 0.093,-14.557 -0.101,-21.828c-0.087,-3.268 1.206,-4.694 4.361,-4.675c6.497,0.039 13.19,-0.869 19.09,2.775c7.023,4.34 9.85,12.347 7.578,20.578c-2.046,7.413 -8.784,12.374 -17.004,12.513c-1.189,0.02 -2.377,0.009 -3.995,0.012Zm12.192,-14.73c0.599,-8.526 -2.599,-12.95 -9.343,-13.142c-2.946,-0.084 -4.487,0.942 -4.394,4.076c0.087,2.966 -0.124,5.943 0.009,8.905c0.094,2.102 -1.085,5.055 1.455,6.006c2.875,1.078 6.166,1.002 8.957,-0.944c1.49,-1.04 2.581,-2.443 3.316,-4.9Z" style="fill:#fff;"/></svg>