<?xml version="1.0" encoding="UTF-8" standalone="no"?><!DOCTYPE svg PUBLIC "-//W3C//DTD SVG 1.1//EN" "http://www.w3.org/Graphics/SVG/1.1/DTD/svg11.dtd"><svg width="100%" height="100%" viewBox="0 0 1800 1800" version="1.1" xmlns="http://www.w3.org/2000/svg" xmlns:xlink="http://www.w3.org/1999/xlink" xml:space="preserve" xmlns:serif="http://www.serif.com/" style="fill-rule:evenodd;clip-rule:evenodd;stroke-linejoin:round;stroke-miterlimit:2;"><rect id="Artboard2" x="0" y="0" width="1800" height="1800" style="fill:none;"/><g id="LOGO"><circle cx="900" cy="900" r="855" style="fill:#fff;"/><path d="M833.232,69.167c104.5,-6.904 205.454,5.225 310.701,37.695c163.468,50.197 308.088,150.219 416.32,287.748c109.725,139.395 173.545,325.816 173.731,508.691c0.187,90.318 -12.689,171.305 -40.68,257.704c-13.809,42.92 -18.661,54.676 -40.121,100.208c-56.915,120.362 -143.128,226.168 -248.934,305.103c-124.28,92.744 -260.317,145.927 -419.866,164.028c-32.096,3.546 -130.065,2.986 -164.214,-0.933c-103.754,-12.129 -198.363,-40.307 -289.054,-85.466c-16.421,-8.397 -32.283,-16.795 -34.896,-18.661c-2.799,-1.866 -7.091,-4.292 -9.89,-5.412c-4.852,-1.679 -50.944,-30.417 -61.767,-38.254c-44.786,-32.47 -65.872,-49.824 -96.103,-78.562c-95.729,-90.878 -162.721,-190.526 -207.134,-307.715c-25.379,-67.365 -39.187,-121.295 -48.518,-191.645c-24.259,-181.569 17.168,-379.372 112.711,-537.428c111.778,-185.301 291.48,-319.658 497.494,-372.094c46.465,-11.756 108.419,-22.02 150.219,-25.005Zm107.299,11.196c-73.896,-5.038 -164.028,2.986 -242.776,21.273c-29.111,6.904 -88.452,25.938 -112.711,36.202c-103.94,43.853 -186.047,98.155 -262.743,173.731c-124.654,122.414 -203.402,274.499 -233.445,450.283c-28.924,169.066 -5.038,336.079 70.537,493.202c24.259,50.384 50.757,93.49 85.839,139.955c61.021,80.987 146.673,156.75 238.111,210.866c24.446,14.369 81.92,43.106 108.232,53.929c45.532,18.847 106.739,37.508 153.018,46.652c61.394,12.129 79.868,13.996 142.754,15.488c67.179,1.306 98.155,-0.933 168.879,-12.689c18.847,-3.172 69.231,-16.048 96.103,-24.446c85.466,-26.871 175.224,-73.15 246.321,-127.266c39.187,-29.671 94.05,-81.361 127.266,-119.802c28.924,-33.403 65.126,-84.906 89.571,-127.639c53.556,-93.304 86.959,-194.818 102.634,-311.634c4.852,-36.015 4.852,-150.592 0,-184.741c-8.584,-62.14 -14.182,-88.265 -29.297,-141.262c-23.326,-80.987 -61.954,-164.214 -105.993,-228.22c-60.087,-87.519 -137.903,-164.774 -222.995,-221.876c-71.844,-48.331 -155.444,-87.145 -238.297,-111.031c-60.834,-17.541 -112.337,-26.312 -181.009,-30.977Zm-114.017,18.661c10.823,-0.933 47.025,-1.306 80.428,-0.933c48.145,0.56 66.059,1.493 87.145,4.479c35.829,5.038 73.523,12.316 99.462,19.034c205.081,53.556 377.506,178.77 489.284,355.486c57.102,90.318 100.208,211.612 115.323,324.51c15.862,118.309 4.105,241.096 -34.149,354.553c-13.996,41.24 -21.646,59.901 -40.494,98.902c-45.346,92.744 -108.792,178.023 -181.009,242.589c-135.85,121.481 -289.428,188.1 -471.183,204.335c-26.871,2.426 -108.232,2.426 -134.357,0c-91.624,-8.584 -178.77,-31.91 -265.915,-71.284c-91.811,-41.427 -179.329,-103.007 -250.053,-176.157c-104.687,-108.045 -178.77,-248.187 -209.746,-396.353c-36.202,-174.478 -10.263,-363.884 72.777,-528.098c40.867,-80.987 85.653,-141.448 156.003,-209.933c59.901,-58.408 119.988,-101.514 194.631,-139.022c36.948,-18.661 58.221,-27.804 98.902,-41.987c53.183,-18.661 134.544,-35.642 192.952,-40.121Zm142.941,14.929c-25.938,-2.612 -97.782,-3.732 -126.893,-1.866c-101.514,6.531 -206.014,34.336 -292.04,77.442c-107.486,53.929 -202.842,132.678 -280.097,231.393c-39.561,50.571 -80.241,122.601 -102.82,182.875c-28.737,76.509 -41.613,127.639 -51.317,205.828c-4.665,36.948 -4.665,130.812 0,168.32c13.622,108.792 37.135,186.98 84.346,278.978c66.246,129.132 169.253,239.044 294.839,314.246c70.911,42.733 163.654,80.054 238.111,96.103c62.14,13.436 109.538,18.474 172.425,18.474c205.081,-0.56 378.252,-67.179 527.538,-203.402c69.418,-63.446 133.984,-150.592 175.784,-237.924c48.704,-101.701 75.203,-209 78.935,-320.591c2.799,-86.586 -11.57,-182.875 -40.494,-270.58c-53.37,-161.228 -163.281,-305.662 -306.969,-403.444c-114.95,-78.002 -233.259,-121.295 -371.348,-135.85Zm-111.964,10.637c60.087,-2.612 111.404,1.306 176.344,12.876c59.341,10.637 95.543,20.713 145.74,41.054c61.394,24.632 129.132,62.7 181.382,102.261c93.117,70.164 161.602,148.912 219.077,252.106c24.632,44.226 35.642,68.858 51.13,114.763c20.9,61.767 35.082,126.706 40.867,187.353c2.799,29.111 2.799,102.634 0.187,130.812c-13.622,138.462 -58.035,262.743 -133.797,373.587c-54.489,79.868 -109.352,136.41 -186.42,192.205c-101.887,73.71 -217.584,118.869 -346.343,135.29c-28.364,3.546 -41.24,4.105 -101.514,4.105c-66.059,0 -70.537,-0.187 -102.634,-5.038c-132.118,-20.34 -253.226,-69.045 -354.553,-142.941c-145.74,-106.179 -250.24,-258.637 -295.586,-431.435c-14.555,-55.982 -21.646,-102.074 -24.632,-160.109c-10.077,-193.698 56.355,-389.636 181.009,-534.629c47.025,-54.862 101.887,-103.94 156.937,-141.075c6.718,-4.479 15.675,-10.45 19.967,-13.436c23.139,-15.675 86.399,-48.704 118.122,-61.767c77.442,-31.537 173.171,-52.623 254.719,-55.982Zm681.489,415.947c-31.537,-7.278 -59.714,0.933 -80.801,23.512c-12.876,13.996 -18.661,25.938 -21.273,44.226c-4.479,31.163 6.718,61.394 31.723,86.026c14.555,14.182 40.68,32.843 42.92,30.604c0.933,-0.933 2.239,-3.919 2.799,-6.531c1.12,-4.479 0,-5.785 -12.316,-13.996c-25.938,-17.354 -43.666,-37.881 -48.518,-55.422c-8.957,-33.216 -2.799,-58.408 18.847,-78.375c14.929,-13.809 29.484,-18.847 51.13,-17.728c19.407,0.933 33.029,7.091 46.652,20.713c16.235,16.235 23.512,35.082 23.512,61.021c0,27.431 -8.397,50.757 -43.293,120.362c-11.383,22.579 -22.206,45.532 -24.072,51.13c-10.637,30.604 2.239,63.633 29.857,77.069c23.886,11.57 56.542,-1.493 69.604,-28.178c3.359,-6.718 4.292,-11.57 4.105,-23.512c-0.187,-19.034 -5.785,-32.47 -19.221,-45.532c-8.771,-8.584 -27.245,-20.713 -31.35,-20.713c-2.239,0 -6.531,9.144 -5.225,11.196c0.56,0.746 5.412,4.105 10.823,7.091c12.503,7.091 25.938,21.833 28.924,31.723c8.024,26.871 -4.852,51.504 -29.857,56.729c-8.211,1.679 -12.129,1.679 -18.661,-0.187c-11.196,-3.359 -22.766,-15.675 -26.871,-28.924c-5.598,-17.541 -2.799,-26.125 26.125,-84.533c36.202,-72.217 41.427,-86.399 43.293,-117.189c3.172,-47.771 -26.312,-90.878 -68.858,-100.581Zm-744.935,946.471c-15.488,-4.105 -43.293,-5.785 -55.049,-3.359c-22.579,4.852 -44.599,21.46 -54.676,41.24c-24.632,49.078 8.024,107.112 69.791,122.974c36.388,9.517 82.107,-1.679 119.988,-29.484l9.144,-6.718l-5.412,-4.292c-2.986,-2.426 -6.345,-4.292 -7.464,-4.292c-1.12,0 -5.971,2.986 -10.823,6.531c-11.196,8.771 -36.202,20.527 -51.504,24.446c-38.814,10.077 -80.801,-2.799 -101.701,-31.35c-10.263,-13.809 -14.555,-26.871 -14.555,-43.479c0,-25.752 11.01,-44.226 32.843,-55.049c22.579,-11.01 46.279,-11.57 75.949,-1.866c21.087,6.904 54.303,27.431 86.959,53.556c16.235,13.062 51.13,35.082 70.724,44.412c36.762,17.728 55.236,22.393 82.48,21.087c23.326,-1.12 35.642,-6.345 50.011,-21.087c15.862,-16.235 20.154,-37.321 11.383,-55.982c-11.196,-24.072 -39.747,-38.068 -66.805,-32.656c-25.379,4.852 -46.279,15.862 -73.15,38.254l-12.689,10.637l5.225,3.546c2.986,1.866 6.345,3.546 7.278,3.546c1.12,0 8.771,-5.225 16.795,-11.383c30.044,-22.953 42.733,-29.297 62.513,-30.977c29.857,-2.426 53.556,19.221 49.451,44.972c-1.679,9.517 -3.359,12.689 -11.57,21.646c-11.196,12.689 -32.283,18.287 -55.609,15.115c-38.628,-5.412 -78.002,-25.565 -141.262,-72.59c-39.374,-29.111 -58.408,-39.374 -88.265,-47.398Zm641.368,-1100.422c-29.297,-6.158 -58.781,5.785 -77.629,31.537c-10.637,14.369 -14.742,29.484 -13.996,50.571c0.56,13.062 1.679,17.728 6.718,27.991c29.484,59.901 114.39,58.968 142.941,-1.679c5.598,-11.57 5.971,-13.809 5.971,-32.096c-0.187,-18.474 -0.373,-20.34 -6.531,-32.47c-11.196,-22.579 -32.096,-38.628 -57.475,-43.853Zm-30.417,17.168c28.364,-8.024 60.274,6.158 73.15,32.656c5.971,11.756 6.531,42.36 0.933,52.623c-6.718,12.689 -16.421,22.579 -27.804,28.551c-10.823,5.598 -12.876,5.971 -30.23,5.971c-16.608,0 -19.594,-0.56 -28.178,-5.038c-13.996,-7.464 -25.938,-21.646 -30.604,-36.388c-4.665,-15.115 -4.665,-25.938 -0.187,-37.881c7.837,-20.34 23.139,-34.896 42.92,-40.494Zm-1164.055,538.735c-13.249,-2.426 -17.354,-2.239 -31.91,1.493c-15.488,4.105 -26.871,10.823 -37.695,22.393c-15.488,16.608 -21.273,33.962 -19.78,59.714c0.746,12.129 2.053,17.541 6.904,27.245c23.512,47.958 85.466,59.714 124.094,23.326c46.838,-43.666 22.579,-122.041 -41.613,-134.17Zm-30.044,17.354c4.665,-1.306 14.369,-2.053 21.833,-1.679c23.699,0.933 41.987,13.622 52.623,36.388c6.531,13.996 6.904,37.508 0.933,50.757c-22.206,47.958 -89.945,49.264 -113.084,2.239c-5.412,-11.01 -6.158,-14.369 -6.158,-27.618c0,-12.129 0.933,-16.795 4.852,-25.192c8.584,-18.474 21.46,-30.044 39.001,-34.896Zm508.504,-794.573c-16.795,-4.292 -33.029,-3.546 -50.571,2.612c-21.087,7.091 -31.35,13.622 -46.838,29.297c-10.45,10.637 -15.115,17.168 -21.833,30.977c-10.823,22.393 -12.129,27.618 -7.091,27.618c2.053,0 5.038,0.56 6.531,1.12c1.866,0.746 4.105,-2.426 7.651,-11.57c14.555,-36.202 44.039,-62.327 77.069,-68.112c31.163,-5.412 69.418,13.436 80.801,39.747c7.651,17.728 6.718,43.853 -1.866,61.207c-12.503,24.819 -46.092,42.92 -80.241,42.92c-17.914,0 -29.671,-2.426 -79.308,-15.862c-58.595,-16.048 -75.389,-18.847 -92.557,-16.048c-23.326,3.732 -39.561,14.929 -48.518,33.029c-6.531,13.436 -6.345,33.962 0.56,45.719c5.971,10.263 18.101,21.46 27.431,25.565c4.479,2.053 12.129,2.986 23.512,2.986c14.742,0 18.101,-0.56 26.685,-5.038c18.847,-9.89 31.537,-26.685 37.135,-48.704c3.359,-13.809 2.426,-16.048 -6.345,-16.048c-3.359,0 -4.479,1.493 -6.158,7.837c-7.278,29.297 -18.661,42.92 -39.561,48.518c-18.101,4.665 -40.867,-4.665 -48.704,-19.78c-9.33,-17.914 -4.852,-38.254 11.01,-50.384c20.527,-15.675 41.8,-14.182 124.84,9.144c42.36,11.756 74.456,15.115 95.729,10.077c27.618,-6.718 55.982,-26.871 67.179,-47.958c11.57,-21.46 12.316,-52.996 2.239,-74.083c-9.33,-19.221 -34.522,-38.441 -58.781,-44.786Zm386.277,30.044c-20.713,-6.904 -36.948,-4.852 -54.862,6.904c-19.594,13.062 -27.245,36.762 -19.034,60.087c7.464,21.273 27.058,37.695 49.824,41.987c14.182,2.799 26.685,1.679 42.546,-3.732c16.608,-5.598 17.168,-5.971 14.182,-13.062c-1.306,-3.172 -3.359,-5.412 -4.665,-4.852c-39.934,15.302 -69.604,9.89 -84.346,-15.302c-4.479,-7.464 -5.225,-10.823 -5.225,-22.206c0,-11.756 0.56,-14.182 5.598,-21.46c17.541,-24.819 54.303,-23.139 73.896,3.546c9.33,12.503 22.393,39.187 41.054,83.6c17.354,41.054 21.833,50.011 32.096,65.126c20.154,29.857 49.637,47.398 82.667,49.264c20.34,1.12 31.723,-1.866 49.264,-12.316c21.273,-12.876 32.843,-33.216 34.896,-61.021c2.426,-35.829 -13.809,-64.753 -46.652,-83.04c-18.661,-10.263 -35.829,-13.809 -60.834,-12.503c-16.235,0.933 -40.121,5.225 -42.733,7.837c-0.56,0.56 0.56,2.612 6.345,11.756c0.187,0.373 5.598,-0.933 12.129,-2.612c18.101,-4.852 49.637,-4.479 64.753,0.933c35.829,12.503 53.929,38.628 52.25,75.389c-1.12,26.125 -12.689,44.039 -35.455,55.609c-29.671,15.115 -69.231,5.785 -94.796,-22.02c-12.503,-13.622 -21.087,-30.044 -40.121,-77.069c-6.718,-16.981 -17.914,-42.173 -24.632,-55.982c-10.637,-21.833 -13.809,-26.685 -25.565,-38.254c-9.704,-9.89 -15.675,-14.182 -22.579,-16.608Zm10.077,-29.484c-12.316,-4.292 -17.914,-5.225 -31.163,-5.038c-20.527,0.187 -27.431,1.866 -43.666,10.45c-26.685,13.996 -41.054,35.642 -42.173,63.633c-1.306,26.871 7.091,47.025 28.551,68.485c22.02,22.206 47.958,32.096 79.308,30.23c16.048,-0.933 41.613,-6.904 45.346,-10.637c0.933,-0.746 0.373,-3.919 -1.306,-6.904l-2.799,-5.598l-10.637,3.546c-39.747,13.436 -76.136,6.531 -100.395,-18.847c-37.508,-39.374 -30.23,-92.557 15.675,-113.83c28.364,-13.249 60.461,-8.397 86.026,13.062c18.101,15.115 28.924,34.522 53.929,96.849c20.154,49.824 25.938,62.513 35.455,76.322c18.287,27.058 46.652,36.388 74.27,24.446c11.383,-4.852 25.005,-18.661 28.551,-29.111c4.292,-12.316 3.172,-31.91 -2.426,-42.733c-10.823,-20.9 -31.91,-33.029 -57.848,-33.029c-14.369,-0.187 -39.747,4.852 -41.8,8.211c-0.56,0.933 -0.187,4.105 0.933,6.904l2.239,5.038l12.503,-3.172c40.307,-10.637 70.724,3.732 74.456,35.269c1.493,13.062 -1.866,22.766 -11.01,31.91c-19.407,19.034 -48.145,15.675 -65.686,-7.837c-8.211,-11.196 -12.876,-20.9 -32.096,-68.112c-28.924,-70.911 -36.948,-86.586 -53.556,-103.38c-13.622,-13.809 -23.139,-19.78 -40.68,-26.125Zm-799.425,988.271c-21.46,-11.756 -41.24,-9.704 -58.781,6.158c-13.062,11.756 -18.661,24.259 -18.661,41.24c0,16.608 4.479,28.737 15.302,40.494c10.637,11.756 22.953,18.474 41.8,23.326c19.594,5.038 20.713,4.852 21.833,-2.426c0.373,-3.172 0.56,-6.158 0.373,-6.531c-0.373,-0.373 -7.464,-2.239 -16.235,-4.292c-28.364,-6.718 -43.666,-19.407 -48.331,-39.934c-2.986,-13.622 -0.933,-25.379 6.345,-34.896c7.837,-10.263 19.78,-16.421 31.537,-16.421c11.943,0 19.407,3.359 28.924,13.249c15.302,16.048 17.541,33.589 12.689,99.835c-3.732,49.637 -2.986,92.557 1.866,112.337c11.01,45.159 47.958,75.016 93.117,75.016c43.853,0 76.695,-27.245 82.294,-68.298c4.479,-34.336 -22.393,-76.882 -60.647,-95.729c-15.302,-7.464 -52.996,-19.407 -55.049,-17.354c-0.56,0.56 -0.933,3.732 -0.933,7.091c0,5.971 0.373,6.158 10.823,8.397c42.173,8.771 70.164,27.431 84.533,56.729c5.785,11.943 6.345,14.369 6.345,30.79c0,15.862 -0.56,18.847 -5.412,28.551c-21.273,41.8 -80.987,48.891 -117.749,14.182c-12.316,-11.57 -20.34,-26.871 -24.446,-46.465c-3.359,-16.795 -3.732,-59.341 -0.746,-94.237c1.306,-13.436 2.239,-37.321 2.239,-53.183c0.187,-24.632 -0.373,-30.79 -3.732,-41.054c-5.598,-16.608 -15.488,-29.111 -29.297,-36.575Zm73.337,-766.768c-20.154,-4.665 -37.321,-2.239 -56.169,8.024c-27.804,14.929 -44.412,49.451 -38.814,79.868c7.651,41.427 42.173,68.671 83.227,65.499c40.121,-2.986 69.791,-32.283 73.15,-72.217c1.866,-23.326 -6.904,-44.786 -25.379,-62.14c-11.01,-10.263 -20.713,-15.302 -36.015,-19.034Zm-38.068,17.914c14.929,-4.852 25.938,-4.852 41.427,0c16.608,5.225 31.537,19.407 37.881,36.202c6.345,16.421 5.038,35.082 -3.546,50.944c-7.091,13.436 -13.622,19.594 -27.991,26.312c-8.771,4.105 -12.876,4.852 -27.991,4.852c-15.488,0 -18.847,-0.56 -27.058,-5.038c-12.689,-6.718 -22.02,-16.048 -28.364,-28.924c-4.479,-9.517 -5.225,-12.876 -5.225,-27.618c0,-14.555 0.746,-18.101 5.038,-26.312c7.278,-13.622 21.646,-25.938 35.829,-30.417Zm1241.123,538.175c-42.92,-11.01 -86.959,17.354 -96.289,62.14c-9.33,45.532 22.953,88.079 69.231,91.251c35.082,2.426 64.753,-15.115 79.681,-47.212c4.665,-9.89 5.225,-13.062 5.225,-30.604c0,-17.914 -0.56,-20.527 -5.785,-31.723c-10.637,-22.393 -28.924,-37.881 -52.063,-43.853Zm-41.427,17.728c13.809,-5.412 37.508,-4.292 50.944,2.426c23.326,11.756 38.068,41.8 32.656,66.619c-4.479,21.087 -17.541,37.135 -37.321,46.279c-15.115,7.091 -36.015,7.091 -50.757,0.187c-32.656,-15.302 -45.159,-52.996 -28.551,-85.839c5.598,-11.196 20.713,-24.632 33.029,-29.671Zm-1256.985,-389.076c-11.756,-3.546 -20.34,-3.359 -31.163,0.373c-25.192,8.771 -42.92,34.149 -42.92,61.021c0.187,12.129 2.426,22.206 9.517,40.494l5.785,14.742l14.182,-7.837l-6.345,-13.436c-8.397,-17.728 -10.637,-33.216 -7.091,-47.025c3.919,-15.115 12.316,-26.312 23.886,-31.723c23.512,-11.01 47.025,-1.12 54.676,22.953c2.612,8.584 2.799,11.57 0.933,20.713c-4.665,22.393 -15.115,32.096 -83.413,78.748c-58.221,39.561 -71.47,51.877 -83.787,76.882c-12.689,25.938 -13.249,55.422 -1.306,80.801c6.345,13.622 20.9,30.23 32.656,37.135c24.259,14.182 52.996,16.235 76.136,5.412c37.695,-17.728 57.848,-59.901 49.264,-103.567c-3.919,-20.154 -17.728,-53.37 -22.579,-55.049c-1.12,-0.187 -3.919,1.12 -6.345,2.986l-4.665,3.546l8.584,17.541c15.115,30.417 17.728,54.676 8.584,79.681c-7.651,20.9 -27.058,39.374 -47.025,44.972c-13.249,3.732 -35.269,1.679 -47.958,-4.292c-12.689,-6.158 -28.364,-21.46 -34.522,-34.149c-14.369,-29.297 -6.904,-67.365 17.728,-91.997c13.436,-13.436 25.379,-22.579 65.499,-49.637c72.404,-49.078 85.653,-63.446 87.332,-95.356c0.746,-11.57 0,-14.929 -4.479,-25.005c-6.345,-14.182 -18.101,-25.005 -31.163,-28.924Zm783.376,912.508c-28.551,-7.464 -68.112,-0.187 -108.232,19.594c-19.967,10.077 -52.25,32.096 -52.25,35.829c0,1.12 2.799,3.732 6.158,5.785l5.971,3.546l8.957,-7.278c21.833,-18.101 44.412,-30.79 71.844,-40.121c15.488,-5.225 19.407,-5.971 39.561,-5.971c27.058,0 37.695,3.359 53.37,17.354c15.302,13.622 21.273,27.618 21.273,49.637c-0.187,14.369 -0.933,18.287 -5.225,27.058c-6.904,14.182 -15.115,23.512 -28.178,32.096c-17.541,11.383 -31.723,14.929 -57.102,14.929c-53.556,-0.373 -98.715,-21.646 -196.87,-92.744c-23.886,-17.354 -39.934,-26.125 -55.049,-30.044c-47.958,-12.316 -86.586,24.819 -70.724,67.738c7.464,19.594 27.618,34.896 52.437,39.934c13.436,2.612 32.47,-0.373 47.771,-7.651c12.503,-5.785 37.695,-22.02 37.695,-24.072c0,-0.746 -2.612,-3.172 -5.785,-5.598c-5.225,-3.919 -5.971,-4.105 -9.704,-1.12c-26.125,19.034 -38.814,24.259 -59.154,24.072c-17.914,0 -30.79,-5.412 -40.867,-16.795c-24.072,-27.431 -7.651,-64.006 28.924,-64.193c21.833,0 33.403,5.598 85.093,42.173c73.896,52.063 100.581,66.619 143.314,77.442c37.135,9.33 69.418,6.345 99.462,-9.144c20.527,-10.45 32.656,-22.206 41.987,-41.24c6.718,-13.622 6.904,-14.555 6.904,-34.522c0,-19.034 -0.373,-21.646 -5.412,-31.91c-10.263,-20.9 -32.47,-38.441 -56.169,-44.786Zm459.24,-365.936c-34.336,-9.144 -75.389,8.397 -96.103,41.054c-12.689,20.34 -15.675,31.35 -16.421,64.566c-0.373,15.862 0,29.857 0.746,31.163c1.12,1.493 3.359,1.866 7.091,0.746l5.598,-1.493l-0.56,-19.407c-0.746,-28.364 1.866,-44.599 9.704,-60.647c14.929,-30.044 49.264,-48.704 80.241,-43.666c44.412,7.278 68.112,59.528 46.652,102.634c-8.211,16.235 -19.78,26.685 -41.24,37.881c-22.206,11.383 -41.24,17.541 -98.342,32.096c-65.499,16.795 -75.203,20.713 -90.504,37.321c-20.713,22.393 -22.02,52.81 -3.359,73.15c12.129,13.249 19.78,16.421 39.561,16.421c14.182,0 18.287,-0.746 27.058,-4.852c20.154,-9.517 33.589,-27.991 37.321,-51.504c2.053,-11.756 2.053,-30.417 0.187,-38.068c-0.933,-4.292 -1.679,-4.665 -6.904,-3.172l-5.971,1.493l-0.746,22.02c-0.56,17.541 -1.493,23.699 -4.852,31.163c-11.943,26.312 -40.68,37.881 -64.006,25.565c-8.024,-4.105 -11.01,-7.091 -15.115,-15.115c-6.531,-12.503 -6.904,-23.699 -0.746,-36.575c9.89,-21.273 23.886,-27.991 95.916,-45.905c52.25,-12.876 64.753,-16.981 91.064,-29.671c18.661,-8.957 24.819,-13.062 34.522,-22.953c13.436,-13.436 20.713,-25.565 25.005,-41.427c5.225,-20.34 2.612,-46.279 -6.345,-64.006c-9.144,-17.914 -28.737,-33.403 -49.451,-38.814Zm-616.363,-978.567c-37.508,-14.182 -80.801,2.239 -98.342,37.321c-16.608,33.403 -11.57,66.246 13.996,91.997c12.503,12.316 25.005,18.847 43.293,21.833c34.149,5.971 70.351,-12.876 84.906,-44.226c10.45,-22.953 6.904,-60.274 -7.651,-79.121c-8.771,-11.756 -23.699,-23.139 -36.202,-27.804Zm-50.384,14.555c11.383,-4.852 36.575,-3.919 48.145,1.866c13.809,6.718 23.326,16.235 29.857,29.484c5.225,10.637 6.158,14.182 5.971,26.498c0,30.604 -16.235,52.996 -44.412,61.021c-36.948,10.823 -75.203,-14.369 -80.241,-52.623c-3.546,-26.871 13.809,-55.049 40.68,-66.246Zm89.012,158.243c-30.977,-3.732 -93.117,-3.546 -123.161,0c-77.255,9.33 -155.63,34.896 -219.45,71.657c-24.632,14.182 -66.432,41.987 -82.854,55.236c-66.619,52.996 -120.548,119.615 -159.362,196.684c-39.374,78.935 -55.796,141.075 -61.021,233.259c-5.785,102.074 13.622,195.004 59.901,287.375c14.182,28.178 37.135,66.059 53.37,87.892c56.915,76.695 130.252,138.089 215.158,180.636c64.753,32.47 130.065,51.877 199.67,59.154c33.589,3.732 112.337,2.612 141.075,-1.866c45.159,-6.904 95.729,-20.154 132.304,-34.896c167.946,-67.552 295.212,-204.521 348.395,-374.894c30.417,-97.409 33.589,-199.856 9.144,-303.236c-24.072,-102.074 -82.294,-205.641 -159.362,-283.643c-27.991,-28.178 -48.891,-44.786 -90.691,-72.217c-44.599,-29.111 -52.25,-33.589 -80.614,-47.025c-61.021,-28.924 -122.414,-47.212 -182.502,-54.116Zm-89.571,13.249c136.223,-7.651 264.609,35.082 386.277,128.945c31.91,24.632 82.48,78.375 110.098,117.189c38.628,54.303 72.963,128.759 87.892,191.086c13.996,57.662 17.541,92.744 16.048,155.817c-1.493,61.394 -8.397,101.887 -27.245,159.176c-41.8,127.639 -132.304,239.977 -249.68,310.514c-69.978,41.987 -148.353,68.858 -228.22,78.188c-24.819,2.799 -101.141,2.799 -126.893,0c-42.546,-4.852 -102.82,-20.154 -143.687,-36.575c-82.107,-33.029 -161.228,-88.452 -217.584,-152.458c-57.475,-65.126 -91.251,-122.601 -119.055,-202.842c-21.833,-62.7 -31.537,-135.477 -27.431,-206.201c1.12,-20.34 3.359,-45.532 4.852,-55.796c14.555,-99.835 56.169,-194.071 121.108,-274.686c20.154,-25.005 61.021,-65.872 85.093,-84.906c96.662,-76.695 210.493,-120.921 328.428,-127.453Zm98.902,16.235c-19.034,-2.612 -89.198,-4.852 -106.366,-3.359c-153.764,13.436 -286.628,80.801 -387.023,196.497c-47.398,54.489 -84.533,120.735 -107.112,190.526c-17.914,55.422 -24.259,93.863 -25.938,155.07c-2.053,76.882 7.091,134.917 32.096,204.148c31.35,86.586 89.385,170.745 160.482,232.139c85.466,73.896 180.262,118.122 289.241,134.917c46.652,7.091 118.682,6.531 164.961,-1.493c114.95,-19.594 217.211,-71.657 300.251,-152.645c72.03,-70.164 120.548,-150.592 148.539,-245.948c36.575,-124.094 25.565,-263.489 -30.23,-383.851c-43.853,-94.61 -112.711,-175.037 -199.856,-233.259c-75.949,-50.757 -153.391,-80.801 -239.044,-92.744Zm-104.285,396.099c-8.891,-0.017 -17.023,0.117 -25.145,-0.111c-4.892,-0.137 -6.82,1.794 -6.765,6.714c0.142,12.698 -0.22,25.402 0.002,38.096c0.102,5.891 -2.415,8.508 -8.058,8.438c-16.48,-0.204 -32.962,-0.322 -49.436,-0.769c-5.85,-0.157 -5.453,-4.835 -5.452,-9.007c0.012,-28.195 -0.172,-56.392 0.026,-84.586c0.134,-19.08 -3.85,-18.775 18.877,-18.575c45.458,0.403 90.917,0.8 136.375,0.903c18.531,0.041 37.071,-0.499 55.593,-1.163c6.462,-0.232 9.419,1.8 9.332,8.54c-0.192,14.983 -0.154,29.973 0.079,44.956c0.084,5.397 -2.255,7.136 -7.327,7.103c-39.112,-0.249 -78.225,-0.375 -118.1,-0.539Zm281.216,390.629c-5.83,0.122 -8.117,-2.573 -8.133,-7.49c-0.049,-15.719 -0.014,-31.441 -0.171,-47.16c-0.046,-4.545 2.107,-6.572 6.37,-6.625c10.652,-0.137 21.303,-0.238 31.955,-0.235c4.349,0.002 6.349,2.373 6.363,6.749c0.015,4.295 -1.916,6.903 -6.16,7.11c-6.074,0.298 -12.168,0.168 -18.255,0.241c-2.696,0.034 -5.354,0.453 -5.45,3.859c-0.101,3.567 2.315,4.782 5.505,4.814c4.057,0.041 8.117,-0.014 12.174,0.055c5.067,0.085 7.934,2.045 7.914,7.789c-0.018,5.739 -3.093,6.765 -7.765,6.627c-4.307,-0.13 -8.622,-0.038 -12.934,-0.052c-3.316,-0.011 -5.186,1.218 -5.136,4.951c0.049,3.551 1.475,5.046 5.02,4.997c5.833,-0.081 11.668,0.113 17.501,0.082c5.134,-0.024 8.035,1.671 7.864,7.563c-0.162,5.587 -3.056,6.805 -7.798,6.75c-9.385,-0.11 -18.77,-0.02 -28.865,-0.026Zm47.427,-293.147l-80.055,0c0.716,-38.507 33.218,-77.989 80.166,-79.806l0,34.79l7.469,0l0,-34.63c41.736,0.994 78.315,37.018 79.489,79.557l-79.252,0l0,-11.887l66.003,0c-3.422,-12.961 -9.255,-24.355 -18.418,-33.912c-10.309,-10.752 -22.793,-17.696 -37.453,-21.122l0,39.005l27.519,0l-9.611,-9.792l-0.394,0.178l0,4.794l-11.552,0l0,-24.236c12.256,1.034 37.769,25.642 41.021,39.778l-57.179,0l0,-17.813l-7.533,0l0,17.75l-57.649,0c8.258,-19.128 22.244,-32.079 41.394,-40.135l0,24.656l-11.48,0l0,-4.786l-0.504,-0.286l-9.586,9.266l0.465,0.591l26.957,0l0,-38.926c-12.722,2.845 -23.856,8.616 -33.501,17.261c-11.311,10.138 -18.362,22.828 -22.319,37.571l66.003,0l0,12.135Zm-394.596,33.063c-7.788,0.121 -14.887,0.113 -21.984,0.293c-5.18,0.131 -7.695,-1.08 -7.393,-7.391c0.694,-14.446 0.717,-28.958 0.224,-43.417c-0.258,-7.527 2.536,-9.465 9.639,-9.599c57.382,-1.085 114.754,1.001 172.13,0.429c4.815,-0.049 9.629,-0.159 14.443,-0.151c4.37,0.005 6.268,2.084 6.21,6.639c-0.191,15.24 -0.246,30.486 -0.05,45.725c0.069,5.295 -1.904,7.081 -7.176,7.061c-49.537,-0.189 -99.075,-0.201 -148.613,-0.206c-5.58,0 -11.161,0.371 -17.431,0.616Zm180.269,201.182c12.069,-4.074 13.917,-2.862 14.01,8.978c0.11,13.96 -0.044,27.921 0.087,41.88c0.05,5.291 -1.852,7.962 -7.525,8.021c-5.429,0.056 -7.025,-2.425 -6.979,-7.435c0.156,-16.982 0.073,-33.966 0.407,-51.444Zm-152.95,-181.383c5.896,0.125 6.836,3.432 6.796,7.757c-0.098,10.676 -0.142,21.354 -0.035,32.028c0.105,10.527 0.198,10.523 10.49,10.522c47.793,-0.002 95.585,-0.008 143.378,-0.003c12.336,0.002 12.313,0.018 12.303,12.591c-0.012,12.202 -0.455,24.431 0.232,36.595c0.426,7.551 -2.128,9.733 -9.405,9.684c-38.131,-0.255 -76.264,-0.13 -114.397,-0.127c-32.284,0.003 -64.572,-0.175 -96.853,0.179c-7.248,0.079 -10.037,-1.906 -9.599,-9.407c1.794,-30.721 0.374,-61.482 0.641,-92.224c0.047,-5.519 2.128,-7.747 7.69,-7.682c16.013,0.188 32.03,0.067 48.76,0.087Zm375.041,-45.832l79.271,0c-0.877,40.47 -35.351,78.202 -79.383,79.75l0,-34.745l-7.509,0l0,34.828c-45.172,-1.573 -79.119,-39.231 -80.259,-79.718l80.086,0l0,12l-65.98,0c3.28,12.475 8.834,23.502 17.478,32.851c10.409,11.259 23.165,18.516 38.307,22.066l0,-38.963l-27.47,0l9.643,9.79l0.451,-0.233l0,-4.771l11.444,0l0,24.224c-12.055,-0.826 -37.652,-25.529 -41.01,-39.767l57.289,0l0,17.858l7.501,0l0,-17.852l57.306,-0.001c-3.142,14.031 -27.833,37.915 -41.093,39.833l0,-24.265l11.492,0l0,4.709l0.475,0.261l9.655,-9.782l-27.557,0l0,38.936c11.957,-2.628 22.522,-7.911 31.816,-15.738c12.243,-10.312 19.87,-23.495 24.041,-39.035l-65.995,0l0,-12.235Zm-733.118,154.833c-8.898,-0.008 -17.036,0.043 -25.171,-0.047c-9.407,-0.105 -10.198,-0.758 -10.11,-9.947c0.366,-38.633 1.053,-77.264 1.218,-115.897c0.088,-21.064 -0.618,-42.13 -1.015,-63.196c-0.044,-2.304 -0.566,-4.721 2.008,-6.024c2.312,-1.17 3.767,0.488 5.275,1.88c16.047,14.82 31.961,29.788 48.232,44.36c6.117,5.478 8.825,11.421 8.757,19.842c-0.319,39.66 0.002,79.327 0.04,118.991c0.009,9.027 -1.018,9.973 -10.163,10.04c-6.103,0.044 -12.205,0 -19.069,-0.002Zm611.954,83.835c-5.557,-0.482 -7.516,1.669 -7.42,6.617c0.203,10.414 0,20.835 0.041,31.253c0.02,5.047 0.343,9.521 -7.176,9.634c-7.985,0.119 -7.582,-4.683 -7.536,-9.963c0.075,-8.894 0.085,-17.788 0.076,-26.68c-0.011,-10.29 -0.027,-10.438 -10.321,-10.769c-4.567,-0.148 -7.158,-1.649 -7.443,-6.547c-0.25,-4.291 1.15,-7.086 5.699,-7.177c12.444,-0.247 24.89,-0.417 37.336,-0.415c5.407,0 5.528,4.127 5.703,8.107c0.279,6.305 -4.153,5.882 -8.961,5.941Zm-436.657,-313.037c0.041,-26.941 0.055,-53.119 0.139,-79.296c0.032,-9.852 1.251,-11.007 10.966,-11.016c14.742,-0.012 29.486,0.163 44.222,-0.108c6.288,-0.116 8.134,2.052 8.122,8.503c-0.137,68.106 0.073,136.212 0.226,204.317c0.005,2.026 0.667,4.226 -1.524,5.458c-2.257,1.268 -3.839,-0.4 -5.33,-1.753c-15.594,-14.176 -30.605,-29.07 -46.967,-42.292c-9.066,-7.325 -10.284,-15.546 -9.997,-25.867c0.528,-19.048 0.146,-38.121 0.143,-57.945Zm280.638,302.634c3.476,17.611 3.905,34.849 3.522,52.123c-0.102,4.623 -3.384,5.699 -7.434,5.641c-4.338,-0.061 -6.727,-2.04 -6.764,-6.424c-0.066,-7.801 -0.018,-15.604 -1.675,-23.98c-3.267,4.641 -6.579,9.249 -9.788,13.929c-5.256,7.666 -7.495,7.737 -12.621,0.333c-2.98,-4.304 -6.009,-8.575 -9.626,-13.729c-3.389,7.878 -2.032,15.009 -2.003,21.927c0.018,4.725 -0.601,7.917 -6.367,7.969c-5.339,0.049 -8.248,-1.863 -8.085,-7.483c0.464,-16.001 0.711,-32.013 1.453,-48.002c0.285,-6.166 4.382,-7.634 9.481,-3.65c5.69,4.443 9.527,10.51 13.374,16.502c2.273,3.541 4.402,7.177 7.095,11.587c6.628,-8.815 12.335,-16.817 18.52,-24.431c2.547,-3.134 5.609,-7.418 10.92,-2.313Zm-301.612,5.357c6.367,6.799 11.241,14.265 18.693,20.17c2.818,-7.469 2.04,-14.617 1.88,-21.593c-0.134,-5.85 2.313,-8.711 7.882,-8.726c5.562,-0.014 6.422,4.112 6.433,8.474c0.037,15.51 0.002,31.018 -0.038,46.528c-0.009,3.122 -0.162,6.366 -3.941,7.362c-3.293,0.868 -5.781,-0.545 -7.974,-3.134c-8.517,-10.061 -17.174,-20.003 -27.336,-31.795c0,10.311 -0.15,18.761 0.053,27.202c0.127,5.261 -1.407,8.035 -7.335,7.945c-6.015,-0.092 -7.208,-3.276 -7.171,-8.297c0.113,-15.257 0.055,-30.513 0.116,-45.77c0.012,-3.026 -0.32,-6.442 2.962,-8.097c3.291,-1.662 5.946,0.792 8.29,2.476c2.644,1.901 4.75,4.553 7.487,7.255Zm626.885,52.503c-17.08,-0.031 -17.033,-0.031 -16.975,-16.03c0.046,-12.44 0.159,-24.887 -0.172,-37.32c-0.15,-5.587 2.061,-8.026 7.457,-7.992c11.108,0.067 22.551,-1.486 32.638,4.745c12.008,7.42 16.84,21.109 12.956,35.182c-3.499,12.675 -15.018,21.157 -29.073,21.393c-2.032,0.034 -4.063,0.015 -6.831,0.021Zm20.844,-25.183c1.024,-14.578 -4.443,-22.141 -15.974,-22.469c-5.037,-0.143 -7.672,1.611 -7.513,6.968c0.148,5.072 -0.212,10.16 0.015,15.224c0.16,3.593 -1.855,8.642 2.487,10.269c4.916,1.843 10.542,1.713 15.314,-1.614c2.548,-1.778 4.413,-4.178 5.67,-8.378Zm-703.237,-312.083c40.455,37.8 80.417,75.347 120.682,112.568c18.696,17.283 18.833,16.994 19.037,41.999c0.14,17.01 -0.717,34.041 0.864,51.027c0.215,2.319 0.328,4.96 -2.211,5.952c-2.893,1.129 -4.596,-1.392 -6.424,-3.097c-28.027,-26.183 -56.011,-52.41 -84.084,-78.544c-38.856,-36.174 -77.666,-72.398 -116.718,-108.361c-19.24,-17.721 -38.914,-34.974 -58.548,-52.262c-3.731,-3.284 -5.754,-6.773 -5.537,-11.794c1.009,-23.384 -0.993,-46.725 -1.128,-70.094c-0.017,-2.975 -0.984,-6.605 2.461,-8.171c3.651,-1.659 5.468,2.02 7.464,3.963c40.582,39.527 82.407,77.732 124.141,116.814Zm546.467,-18.777c-14.34,17.681 -21.676,37.768 -24.953,59.461c-1.953,12.928 2.031,25.17 5.678,37.271c10.032,33.288 32.919,54.744 64.31,67.657c7.631,3.14 16.07,4.503 24.26,6.018c4.359,0.806 6.187,2.524 6.158,6.906c-0.108,16.521 -0.163,33.046 -0.009,49.567c0.05,5.491 -2.489,7.275 -7.534,6.697c-51.955,-5.949 -95.486,-27.538 -126.102,-70.809c-15.968,-22.567 -25.916,-47.968 -28.732,-76.075c-3.935,-39.271 3.227,-76.174 24.269,-109.289c26.038,-40.977 63.699,-66.142 111.773,-75.008c6.483,-1.195 13.027,-2.06 19.542,-3.085c4.432,-0.697 6.723,0.897 6.701,5.673c-0.07,16.778 -0.075,33.555 0.047,50.332c0.032,4.384 -2.275,5.374 -6.091,5.938c-27.768,4.118 -50.681,17.106 -69.317,38.748Zm-388.95,328.049c0.035,3.029 0.134,5.316 0.092,7.6c-0.076,4.126 1.817,6.013 6.01,5.914c5.331,-0.127 10.668,0.023 16.004,0.009c4.275,-0.012 5.801,2.333 5.716,6.305c-0.081,3.793 -0.569,7.728 -5.241,7.844c-10.911,0.273 -21.842,0.183 -32.753,-0.142c-4.065,-0.122 -5.276,-3.338 -5.261,-7.068c0.069,-15.498 0.175,-30.997 0.11,-46.494c-0.027,-6.459 4.039,-7.331 9.085,-7.406c5.319,-0.078 6.224,3.28 6.215,7.542c-0.018,8.384 0.014,16.769 0.024,25.896Zm-177.637,19.013c-11.421,14.57 -36.979,10.922 -43.887,-3.888c-1.808,-3.876 -1.849,-7.804 -2.298,-11.825c-1.134,-10.157 -0.186,-20.318 -0.32,-30.472c-0.063,-4.803 2.321,-6.863 7.098,-6.685c4.735,0.177 6.823,2.31 6.736,7.142c-0.163,9.147 -0.182,18.304 0.046,27.448c0.243,9.745 4.884,14.343 13.389,13.775c6.326,-0.423 10.803,-7.072 9.848,-15.485c-1.012,-8.926 0.993,-17.739 0.475,-26.63c-0.339,-5.787 3.883,-6.567 8.151,-6.578c4.539,-0.011 6.364,2.899 5.777,7.106c-1.486,10.639 -0.519,21.325 -0.743,31.984c-0.107,5.02 -1.067,9.538 -4.271,14.108Zm791.41,-376.225c21.735,31.338 32.254,65.979 29.909,103.106c-2.852,45.161 -20.699,84.284 -54.833,115.27c-28.491,25.864 -61.818,40.11 -99.965,43.783c-5.255,0.505 -6.979,-1.396 -6.947,-6.186c0.105,-16.264 0.169,-32.526 0.217,-48.789c0.014,-4.713 1.71,-6.939 6.947,-7.895c38.983,-7.116 67.486,-28.673 83.425,-64.886c15.18,-34.488 7.64,-79.255 -18.574,-107.296c-17.554,-18.78 -38.142,-31.767 -63.902,-35.428c-6.274,-0.893 -8.419,-3.618 -8.23,-10.014c0.435,-14.724 0.241,-29.474 0.012,-44.21c-0.096,-6.233 2.092,-8.488 8.598,-8.041c44.141,3.032 79.795,23.023 109.788,54.418c4.722,4.944 8.837,10.469 13.555,16.167Zm-526.434,333.251c0.005,14.957 -0.041,29.187 0.04,43.415c0.027,4.788 -0.478,8.609 -6.817,8.427c-5.827,-0.168 -8.004,-2.675 -7.904,-8.491c0.249,-14.48 0.279,-28.97 -0.061,-43.446c-0.137,-5.807 1.359,-9.37 7.637,-9.649c6.559,-0.291 7.438,3.882 7.106,9.744Zm731.328,-502.267c-20.154,-9.704 -45.346,-5.598 -60.834,9.704c-13.062,13.062 -15.862,20.34 -15.862,40.68c0,15.488 0.56,19.034 5.038,28.178c2.986,5.785 8.957,14.182 13.622,18.847c9.704,9.33 37.135,26.685 39.747,25.005c1.12,-0.56 2.799,-3.546 3.732,-6.531c1.866,-5.412 1.866,-5.598 -9.89,-11.196c-24.446,-11.383 -38.628,-30.79 -39.001,-53.37c-0.187,-14.929 5.412,-26.312 17.168,-34.709c8.211,-5.971 9.704,-6.345 23.139,-6.345c12.876,0 14.929,0.56 22.393,5.785c5.225,3.919 10.077,9.89 14.182,17.541c5.038,9.89 5.971,13.436 5.971,24.632c0,18.847 -7.278,38.814 -34.522,94.796c-33.029,67.738 -39.001,91.437 -31.163,122.787c6.904,26.871 24.632,49.824 47.585,60.834c14.369,7.091 38.628,8.771 53.743,3.919c26.498,-8.771 43.293,-22.953 55.049,-46.838c6.531,-13.062 7.278,-16.048 7.837,-32.47c1.679,-41.054 -16.981,-71.284 -61.767,-99.835l-5.038,-3.172l-2.986,6.904c-1.493,3.732 -2.612,7.091 -2.239,7.464c0.373,0.187 6.531,4.292 13.622,8.771c15.675,10.077 30.604,25.752 37.321,39.561c10.263,20.9 10.45,47.585 0.746,67.738c-5.971,12.316 -22.02,27.804 -34.709,33.589c-13.809,6.345 -36.948,8.024 -49.824,3.732c-30.23,-10.263 -51.504,-43.853 -49.078,-77.629c1.306,-19.407 6.718,-33.216 35.829,-93.49c30.79,-63.446 33.589,-71.284 33.589,-96.103c0,-16.235 -0.56,-19.967 -4.852,-29.111c-6.158,-12.876 -16.608,-23.886 -28.551,-29.671Zm-1230.3,544.893c-13.809,-4.292 -32.283,-4.665 -45.719,-0.933c-20.9,5.785 -41.24,23.139 -50.384,43.479c-4.852,10.637 -5.971,15.302 -6.718,31.537c-0.746,15.488 -0.187,21.087 2.986,31.723c7.091,23.326 25.192,45.719 47.958,59.341c11.57,6.904 42.36,17.728 50.384,17.728c4.105,0 4.665,-0.746 4.665,-7.464c0,-5.971 -0.746,-7.464 -3.359,-7.464c-1.866,0 -10.263,-2.053 -18.661,-4.665c-47.771,-14.182 -73.523,-46.092 -70.911,-87.705c1.306,-19.034 8.397,-33.589 23.139,-47.398c14.555,-13.622 25.565,-17.914 45.905,-17.728c12.129,0.187 16.235,1.12 26.312,5.971c22.766,11.196 39.747,33.589 45.159,59.528c4.852,22.766 5.225,44.412 1.866,91.064c-3.919,53.183 -3.172,84.533 2.426,100.021c12.876,36.015 46.465,53.183 79.868,40.68c37.321,-13.996 43.479,-61.207 12.129,-91.811c-13.249,-13.062 -31.537,-20.9 -57.288,-24.446c-7.464,-1.12 -7.837,-0.933 -8.957,4.852c-0.56,3.172 -0.56,6.531 0.187,7.091c0.933,0.746 8.024,2.239 16.235,3.359c18.287,2.799 28.364,7.278 39.187,17.168c11.196,10.45 16.048,20.713 16.048,34.522c0,20.34 -10.263,33.403 -30.23,38.441c-17.541,4.292 -37.508,-4.852 -47.398,-22.02c-10.637,-17.914 -12.503,-46.465 -7.091,-111.218c5.412,-66.246 -2.426,-107.299 -25.565,-134.17c-11.196,-13.249 -28.364,-25.192 -42.173,-29.484Zm289.054,306.036c-22.393,-6.904 -47.958,-3.546 -65.872,8.957c-42.546,29.111 -46.838,87.332 -9.33,122.228c13.622,12.503 23.326,17.354 40.867,20.154c35.082,5.785 67.179,-10.823 83.04,-43.106c5.598,-11.383 5.971,-13.249 5.971,-32.656c0,-18.287 -0.56,-21.646 -5.038,-31.163c-10.077,-21.833 -27.991,-37.695 -49.637,-44.412Zm-40.307,14.182c27.431,-8.771 60.461,6.531 72.963,33.589c15.675,34.149 1.12,72.03 -32.283,84.72c-14.555,5.412 -36.762,4.665 -48.891,-1.679c-11.57,-5.971 -23.139,-17.168 -29.484,-28.551c-4.852,-8.957 -5.412,-11.57 -5.412,-27.618c0,-13.996 0.746,-19.407 3.919,-26.312c7.651,-16.421 21.46,-28.551 39.187,-34.149Zm151.898,-1244.669c-32.096,-9.517 -64.379,7.837 -81.92,44.039c-4.105,8.584 -8.024,17.354 -8.584,19.594c-1.12,4.105 -0.933,4.105 10.45,7.278c2.239,0.56 4.292,-2.612 8.211,-13.249c5.785,-15.862 16.048,-30.79 25.379,-37.135c21.087,-14.182 49.824,-11.01 64.006,6.904c4.665,5.785 5.785,9.144 6.345,19.221c1.306,21.273 -5.598,32.843 -25.752,42.92c-9.144,4.665 -12.129,5.225 -27.058,5.038c-17.168,-0.187 -26.312,-2.053 -72.777,-14.555c-75.389,-20.527 -105.06,-21.833 -136.41,-5.971c-28.364,14.369 -47.398,44.786 -47.398,75.949c0,33.962 15.115,57.475 46.465,72.59c13.809,6.531 14.555,6.718 36.762,6.718l22.393,0l16.608,-8.211c29.111,-14.369 50.757,-40.494 58.781,-70.911c2.426,-8.957 0.933,-11.383 -6.904,-11.383c-3.359,0 -4.852,2.426 -8.957,14.929c-5.598,16.795 -16.235,33.962 -26.498,43.106c-3.732,3.172 -13.249,8.957 -20.9,12.689c-13.436,6.345 -15.302,6.718 -32.843,6.531c-24.259,0 -36.762,-4.665 -50.571,-18.474c-15.862,-15.862 -18.474,-22.393 -18.474,-46.652c0,-19.594 0.187,-21.087 6.158,-32.283c11.383,-21.833 29.484,-35.269 53.556,-39.747c21.087,-3.919 41.8,-1.12 102.634,14.369c53.556,13.622 56.915,14.369 78.375,14.555c22.206,0.187 22.766,0 35.269,-6.158c48.518,-24.632 44.599,-86.586 -6.345,-101.701Zm820.511,955.241c-19.78,-8.211 -44.599,-2.053 -61.767,15.115c-15.488,15.302 -21.46,35.829 -17.914,61.58c2.799,21.273 2.986,21.646 10.077,20.154c3.172,-0.56 6.345,-1.493 6.904,-1.866c0.56,-0.373 -0.187,-6.345 -1.493,-13.249c-5.971,-28.364 0.56,-50.384 18.847,-63.073c29.857,-20.527 64.939,-0.187 62.327,36.202c-1.306,19.407 -14.555,33.589 -41.054,43.853c-7.278,2.799 -36.762,11.196 -65.686,18.847c-61.021,16.048 -68.485,18.474 -89.198,29.297c-17.168,8.771 -36.575,26.498 -44.972,40.867c-26.498,45.159 -12.689,95.17 31.91,116.07c10.637,5.038 15.115,5.971 30.604,6.531c27.058,1.12 44.412,-4.665 68.298,-22.579c10.823,-8.211 24.072,-25.752 28.924,-37.881c5.412,-13.996 8.771,-35.829 8.771,-56.729l0,-20.9l-5.971,1.306c-3.359,0.746 -6.718,1.679 -7.464,2.239c-0.933,0.373 -1.493,11.196 -1.493,23.886c0,19.594 -0.746,25.379 -4.665,38.068c-11.57,36.575 -41.8,58.408 -81.174,58.595c-19.78,0.187 -33.216,-4.665 -46.465,-16.608c-33.962,-30.604 -24.446,-86.586 20.154,-116.443c13.062,-8.957 35.455,-16.421 90.691,-30.79c63.633,-16.608 78.375,-21.46 94.61,-31.91c27.058,-17.354 36.015,-44.972 23.886,-73.15c-4.479,-10.45 -17.168,-23.512 -26.685,-27.431Zm-265.542,276.738c-10.45,-4.852 -15.115,-5.785 -29.484,-6.345c-10.823,-0.56 -19.594,0.187 -24.446,1.679c-57.662,19.221 -76.882,89.758 -35.642,130.812c39.374,39.374 104.5,27.804 128.759,-23.139c5.412,-11.196 5.785,-13.622 5.785,-31.723c0,-18.287 -0.373,-20.34 -6.345,-33.029c-7.837,-16.795 -21.273,-30.23 -38.628,-38.254Zm-49.264,10.637c21.273,-5.785 43.293,-0.187 58.968,15.115c14.742,14.182 18.474,23.512 18.474,45.532c0,15.675 -0.56,18.847 -5.038,27.245c-6.718,12.689 -22.579,26.871 -34.896,31.35c-13.062,4.665 -36.575,3.546 -48.891,-2.426c-11.57,-5.412 -22.953,-17.168 -29.297,-29.857c-4.292,-8.957 -5.038,-12.689 -4.852,-26.312c0,-16.795 2.426,-25.005 11.196,-37.695c6.345,-9.144 21.646,-19.407 34.336,-22.953Zm-925.571,-898.326c-15.675,-2.612 -16.981,-2.612 -33.589,1.866c-42.36,11.01 -69.045,48.891 -69.045,97.782c0,17.168 5.785,40.867 13.996,57.102c5.225,10.077 6.345,10.637 13.062,6.158l4.479,-2.986l-4.292,-8.584c-9.144,-18.474 -13.062,-33.962 -13.062,-52.623c0.187,-27.991 6.904,-46.465 23.512,-63.26c27.804,-27.991 70.351,-30.044 95.916,-4.665c18.847,19.034 26.685,45.346 20.527,69.418c-9.144,36.202 -30.604,56.542 -124.28,118.682c-18.101,11.943 -39.187,33.029 -44.786,44.972c-6.531,13.249 -6.718,39.187 -0.373,50.944c10.263,19.034 29.111,32.47 46.465,32.656c36.015,0.373 63.633,-35.082 56.729,-72.59c-2.053,-10.45 -11.756,-33.216 -17.354,-40.68c-2.612,-3.172 -2.986,-3.172 -8.771,-0.373l-5.971,3.172l3.546,5.038c12.316,17.354 17.914,39.187 14.555,56.915c-1.679,9.517 -11.756,23.139 -20.527,28.178c-15.862,9.33 -31.163,7.837 -44.412,-4.105c-10.077,-9.144 -14.555,-19.034 -14.555,-33.029c0,-22.579 11.943,-37.321 52.623,-65.312c91.064,-62.887 109.725,-81.734 119.988,-121.295c12.129,-47.025 -18.287,-95.916 -64.379,-103.38Z"/></g></svg>