<?xml version="1.0" encoding="UTF-8" standalone="no"?><!DOCTYPE svg PUBLIC "-//W3C//DTD SVG 1.1//EN" "http://www.w3.org/Graphics/SVG/1.1/DTD/svg11.dtd"><svg width="100%" height="100%" viewBox="0 0 1800 1800" version="1.1" xmlns="http://www.w3.org/2000/svg" xmlns:xlink="http://www.w3.org/1999/xlink" xml:space="preserve" xmlns:serif="http://www.serif.com/" style="fill-rule:evenodd;clip-rule:evenodd;stroke-linejoin:round;stroke-miterlimit:2;"><rect id="Artboard2" x="0" y="0" width="1800" height="1800" style="fill:none;"/><g id="LOGO"><circle cx="900" cy="900" r="810" style="fill:#fff;"/><path d="M836.746,112.895c99,-6.541 194.641,4.95 294.348,35.711c154.864,47.555 291.873,142.312 394.409,272.603c103.95,132.059 164.411,308.668 164.587,481.918c0.177,85.564 -12.021,162.289 -38.539,244.141c-13.082,40.661 -17.679,51.798 -38.009,94.934c-53.92,114.027 -135.595,214.264 -235.832,289.044c-117.739,87.862 -246.616,138.246 -397.768,155.395c-30.407,3.359 -123.22,2.829 -155.571,-0.884c-98.293,-11.491 -187.923,-38.186 -273.841,-80.968c-15.557,-7.955 -30.584,-15.911 -33.059,-17.679c-2.652,-1.768 -6.718,-4.066 -9.37,-5.127c-4.596,-1.591 -48.262,-28.816 -58.516,-36.241c-42.429,-30.761 -62.405,-47.202 -91.045,-74.427c-90.691,-86.095 -154.157,-180.498 -196.232,-291.519c-24.043,-63.82 -37.125,-114.911 -45.964,-181.559c-22.982,-172.012 16.264,-359.405 106.779,-509.143c105.895,-175.548 276.139,-302.834 471.31,-352.511c44.02,-11.137 102.712,-20.861 142.312,-23.689Zm101.652,10.607c-70.007,-4.773 -155.395,2.829 -229.998,20.154c-27.579,6.541 -83.796,24.573 -106.779,34.296c-98.47,41.545 -176.255,92.989 -248.914,164.587c-118.093,115.971 -192.696,260.052 -221.159,426.584c-27.402,160.168 -4.773,318.391 66.825,467.244c22.982,47.732 48.086,88.57 81.321,132.589c57.809,76.725 138.954,148.5 225.578,199.768c23.159,13.612 77.609,40.837 102.536,51.091c43.136,17.855 101.121,35.534 144.964,44.196c58.162,11.491 75.664,13.259 135.241,14.673c63.643,1.237 92.989,-0.884 159.991,-12.021c17.855,-3.005 65.587,-15.204 91.045,-23.159c80.968,-25.457 166.002,-69.3 233.357,-120.568c37.125,-28.109 89.1,-77.079 120.568,-113.496c27.402,-31.645 61.698,-80.437 84.857,-120.921c50.737,-88.393 82.382,-184.564 97.232,-295.232c4.596,-34.12 4.596,-142.666 0,-175.018c-8.132,-58.87 -13.436,-83.62 -27.755,-133.827c-22.098,-76.725 -58.693,-155.571 -100.414,-216.209c-56.925,-82.912 -130.645,-156.102 -211.259,-210.198c-68.062,-45.787 -147.262,-82.559 -225.755,-105.187c-57.632,-16.618 -106.425,-24.927 -171.482,-29.346Zm-108.016,17.679c10.254,-0.884 44.55,-1.237 76.195,-0.884c45.611,0.53 62.582,1.414 82.559,4.243c33.943,4.773 69.654,11.668 94.227,18.032c194.287,50.737 357.637,169.361 463.532,336.777c54.096,85.564 94.934,200.475 109.254,307.43c15.027,112.082 3.889,228.407 -32.352,335.893c-13.259,39.07 -20.507,56.748 -38.362,93.696c-42.959,87.862 -103.066,168.653 -171.482,229.821c-128.7,115.087 -274.195,178.2 -446.384,193.58c-25.457,2.298 -102.536,2.298 -127.286,0c-86.802,-8.132 -169.361,-30.23 -251.92,-67.532c-86.979,-39.246 -169.891,-97.586 -236.893,-166.886c-99.177,-102.359 -169.361,-235.125 -198.707,-375.493c-34.296,-165.295 -9.723,-344.732 68.946,-500.303c38.716,-76.725 81.145,-134.004 147.793,-198.884c56.748,-55.334 113.673,-96.171 184.387,-131.705c35.004,-17.679 55.157,-26.341 93.696,-39.777c50.384,-17.679 127.462,-33.766 182.796,-38.009Zm135.418,14.143c-24.573,-2.475 -92.636,-3.536 -120.214,-1.768c-96.171,6.187 -195.171,32.529 -276.67,73.366c-101.829,51.091 -192.166,125.695 -265.355,219.214c-37.479,47.909 -76.018,116.148 -97.409,173.25c-27.225,72.482 -39.423,120.921 -48.616,194.995c-4.42,35.004 -4.42,123.927 0,159.461c12.905,103.066 35.18,177.139 79.907,264.295c62.759,122.336 160.345,226.462 279.321,297.707c67.179,40.484 155.041,75.841 225.578,91.045c58.87,12.729 103.773,17.502 163.35,17.502c194.287,-0.53 358.344,-63.643 499.773,-192.696c65.764,-60.107 126.932,-142.666 166.532,-225.402c46.141,-96.348 71.245,-198 74.78,-303.718c2.652,-82.029 -10.961,-173.25 -38.362,-256.339c-50.561,-152.743 -154.687,-289.575 -290.812,-382.211c-108.9,-73.896 -220.982,-114.911 -351.803,-128.7Zm-106.071,10.077c56.925,-2.475 105.541,1.237 167.062,12.198c56.218,10.077 90.514,19.623 138.07,38.893c58.162,23.336 122.336,59.4 171.836,96.879c88.216,66.471 153.096,141.075 207.546,238.837c23.336,41.898 33.766,65.234 48.439,108.723c19.8,58.516 33.236,120.037 38.716,177.493c2.652,27.579 2.652,97.232 0.177,123.927c-12.905,131.175 -54.98,248.914 -126.755,353.925c-51.621,75.664 -103.596,129.23 -176.609,182.089c-96.525,69.83 -206.132,112.612 -328.114,128.17c-26.871,3.359 -39.07,3.889 -96.171,3.889c-62.582,0 -66.825,-0.177 -97.232,-4.773c-125.164,-19.27 -239.898,-65.411 -335.893,-135.418c-138.07,-100.591 -237.07,-245.025 -280.028,-408.728c-13.789,-53.036 -20.507,-96.702 -23.336,-151.682c-9.546,-183.503 53.389,-369.128 171.482,-506.491c44.55,-51.975 96.525,-98.47 148.677,-133.65c6.364,-4.243 14.85,-9.9 18.916,-12.729c21.921,-14.85 81.852,-46.141 111.905,-58.516c73.366,-29.877 164.057,-49.854 241.312,-53.036Zm645.621,394.055c-29.877,-6.895 -56.571,0.884 -76.548,22.275c-12.198,13.259 -17.679,24.573 -20.154,41.898c-4.243,29.523 6.364,58.162 30.054,81.498c13.789,13.436 38.539,31.114 40.661,28.993c0.884,-0.884 2.121,-3.712 2.652,-6.187c1.061,-4.243 0,-5.48 -11.668,-13.259c-24.573,-16.441 -41.368,-35.887 -45.964,-52.505c-8.486,-31.468 -2.652,-55.334 17.855,-74.25c14.143,-13.082 27.932,-17.855 48.439,-16.795c18.386,0.884 31.291,6.718 44.196,19.623c15.38,15.38 22.275,33.236 22.275,57.809c0,25.987 -7.955,48.086 -41.014,114.027c-10.784,21.391 -21.037,43.136 -22.805,48.439c-10.077,28.993 2.121,60.284 28.286,73.012c22.629,10.961 53.566,-1.414 65.941,-26.695c3.182,-6.364 4.066,-10.961 3.889,-22.275c-0.177,-18.032 -5.48,-30.761 -18.209,-43.136c-8.309,-8.132 -25.811,-19.623 -29.7,-19.623c-2.121,0 -6.187,8.662 -4.95,10.607c0.53,0.707 5.127,3.889 10.254,6.718c11.845,6.718 24.573,20.684 27.402,30.054c7.602,25.457 -4.596,48.793 -28.286,53.743c-7.779,1.591 -11.491,1.591 -17.679,-0.177c-10.607,-3.182 -21.568,-14.85 -25.457,-27.402c-5.304,-16.618 -2.652,-24.75 24.75,-80.084c34.296,-68.416 39.246,-81.852 41.014,-111.021c3.005,-45.257 -24.927,-86.095 -65.234,-95.287Zm-705.728,896.657c-14.673,-3.889 -41.014,-5.48 -52.152,-3.182c-21.391,4.596 -42.252,20.33 -51.798,39.07c-23.336,46.495 7.602,101.475 66.118,116.502c34.473,9.016 77.786,-1.591 113.673,-27.932l8.662,-6.364l-5.127,-4.066c-2.829,-2.298 -6.011,-4.066 -7.071,-4.066c-1.061,0 -5.657,2.829 -10.254,6.187c-10.607,8.309 -34.296,19.446 -48.793,23.159c-36.771,9.546 -76.548,-2.652 -96.348,-29.7c-9.723,-13.082 -13.789,-25.457 -13.789,-41.191c0,-24.396 10.43,-41.898 31.114,-52.152c21.391,-10.43 43.843,-10.961 71.952,-1.768c19.977,6.541 51.445,25.987 82.382,50.737c15.38,12.375 48.439,33.236 67.002,42.075c34.827,16.795 52.329,21.214 78.139,19.977c22.098,-1.061 33.766,-6.011 47.379,-19.977c15.027,-15.38 19.093,-35.357 10.784,-53.036c-10.607,-22.805 -37.655,-36.064 -63.289,-30.937c-24.043,4.596 -43.843,15.027 -69.3,36.241l-12.021,10.077l4.95,3.359c2.829,1.768 6.011,3.359 6.895,3.359c1.061,0 8.309,-4.95 15.911,-10.784c28.462,-21.745 40.484,-27.755 59.223,-29.346c28.286,-2.298 50.737,18.209 46.848,42.605c-1.591,9.016 -3.182,12.021 -10.961,20.507c-10.607,12.021 -30.584,17.325 -52.682,14.32c-36.595,-5.127 -73.896,-24.22 -133.827,-68.77c-37.302,-27.579 -55.334,-37.302 -83.62,-44.904Zm607.612,-1042.505c-27.755,-5.834 -55.687,5.48 -73.543,29.877c-10.077,13.612 -13.966,27.932 -13.259,47.909c0.53,12.375 1.591,16.795 6.364,26.518c27.932,56.748 108.37,55.864 135.418,-1.591c5.304,-10.961 5.657,-13.082 5.657,-30.407c-0.177,-17.502 -0.354,-19.27 -6.187,-30.761c-10.607,-21.391 -30.407,-36.595 -54.45,-41.545Zm-28.816,16.264c26.871,-7.602 57.102,5.834 69.3,30.937c5.657,11.137 6.187,40.13 0.884,49.854c-6.364,12.021 -15.557,21.391 -26.341,27.048c-10.254,5.304 -12.198,5.657 -28.639,5.657c-15.734,0 -18.562,-0.53 -26.695,-4.773c-13.259,-7.071 -24.573,-20.507 -28.993,-34.473c-4.42,-14.32 -4.42,-24.573 -0.177,-35.887c7.425,-19.27 21.921,-33.059 40.661,-38.362Zm-1102.789,510.38c-12.552,-2.298 -16.441,-2.121 -30.23,1.414c-14.673,3.889 -25.457,10.254 -35.711,21.214c-14.673,15.734 -20.154,32.175 -18.739,56.571c0.707,11.491 1.945,16.618 6.541,25.811c22.275,45.434 80.968,56.571 117.562,22.098c44.373,-41.368 21.391,-115.618 -39.423,-127.109Zm-28.462,16.441c4.42,-1.237 13.612,-1.945 20.684,-1.591c22.452,0.884 39.777,12.905 49.854,34.473c6.187,13.259 6.541,35.534 0.884,48.086c-21.037,45.434 -85.211,46.671 -107.132,2.121c-5.127,-10.43 -5.834,-13.612 -5.834,-26.164c0,-11.491 0.884,-15.911 4.596,-23.866c8.132,-17.502 20.33,-28.462 36.948,-33.059Zm481.741,-752.753c-15.911,-4.066 -31.291,-3.359 -47.909,2.475c-19.977,6.718 -29.7,12.905 -44.373,27.755c-9.9,10.077 -14.32,16.264 -20.684,29.346c-10.254,21.214 -11.491,26.164 -6.718,26.164c1.945,0 4.773,0.53 6.187,1.061c1.768,0.707 3.889,-2.298 7.248,-10.961c13.789,-34.296 41.721,-59.046 73.012,-64.527c29.523,-5.127 65.764,12.729 76.548,37.655c7.248,16.795 6.364,41.545 -1.768,57.986c-11.845,23.512 -43.666,40.661 -76.018,40.661c-16.971,0 -28.109,-2.298 -75.134,-15.027c-55.511,-15.204 -71.421,-17.855 -87.686,-15.204c-22.098,3.536 -37.479,14.143 -45.964,31.291c-6.187,12.729 -6.011,32.175 0.53,43.312c5.657,9.723 17.148,20.33 25.987,24.22c4.243,1.945 11.491,2.829 22.275,2.829c13.966,0 17.148,-0.53 25.28,-4.773c17.855,-9.37 29.877,-25.28 35.18,-46.141c3.182,-13.082 2.298,-15.204 -6.011,-15.204c-3.182,0 -4.243,1.414 -5.834,7.425c-6.895,27.755 -17.679,40.661 -37.479,45.964c-17.148,4.42 -38.716,-4.42 -46.141,-18.739c-8.839,-16.971 -4.596,-36.241 10.43,-47.732c19.446,-14.85 39.6,-13.436 118.27,8.662c40.13,11.137 70.537,14.32 90.691,9.546c26.164,-6.364 53.036,-25.457 63.643,-45.434c10.961,-20.33 11.668,-50.207 2.121,-70.184c-8.839,-18.209 -32.705,-36.418 -55.687,-42.429Zm365.946,28.462c-19.623,-6.541 -35.004,-4.596 -51.975,6.541c-18.562,12.375 -25.811,34.827 -18.032,56.925c7.071,20.154 25.634,35.711 47.202,39.777c13.436,2.652 25.28,1.591 40.307,-3.536c15.734,-5.304 16.264,-5.657 13.436,-12.375c-1.237,-3.005 -3.182,-5.127 -4.42,-4.596c-37.832,14.496 -65.941,9.37 -79.907,-14.496c-4.243,-7.071 -4.95,-10.254 -4.95,-21.037c0,-11.137 0.53,-13.436 5.304,-20.33c16.618,-23.512 51.445,-21.921 70.007,3.359c8.839,11.845 21.214,37.125 38.893,79.2c16.441,38.893 20.684,47.379 30.407,61.698c19.093,28.286 47.025,44.904 78.316,46.671c19.27,1.061 30.054,-1.768 46.671,-11.668c20.154,-12.198 31.114,-31.468 33.059,-57.809c2.298,-33.943 -13.082,-61.345 -44.196,-78.67c-17.679,-9.723 -33.943,-13.082 -57.632,-11.845c-15.38,0.884 -38.009,4.95 -40.484,7.425c-0.53,0.53 0.53,2.475 6.011,11.137c0.177,0.354 5.304,-0.884 11.491,-2.475c17.148,-4.596 47.025,-4.243 61.345,0.884c33.943,11.845 51.091,36.595 49.5,71.421c-1.061,24.75 -12.021,41.721 -33.589,52.682c-28.109,14.32 -65.587,5.48 -89.807,-20.861c-11.845,-12.905 -19.977,-28.462 -38.009,-73.012c-6.364,-16.087 -16.971,-39.954 -23.336,-53.036c-10.077,-20.684 -13.082,-25.28 -24.22,-36.241c-9.193,-9.37 -14.85,-13.436 -21.391,-15.734Zm9.546,-27.932c-11.668,-4.066 -16.971,-4.95 -29.523,-4.773c-19.446,0.177 -25.987,1.768 -41.368,9.9c-25.28,13.259 -38.893,33.766 -39.954,60.284c-1.237,25.457 6.718,44.55 27.048,64.88c20.861,21.037 45.434,30.407 75.134,28.639c15.204,-0.884 39.423,-6.541 42.959,-10.077c0.884,-0.707 0.354,-3.712 -1.237,-6.541l-2.652,-5.304l-10.077,3.359c-37.655,12.729 -72.129,6.187 -95.111,-17.855c-35.534,-37.302 -28.639,-87.686 14.85,-107.839c26.871,-12.552 57.279,-7.955 81.498,12.375c17.148,14.32 27.402,32.705 51.091,91.752c19.093,47.202 24.573,59.223 33.589,72.305c17.325,25.634 44.196,34.473 70.361,23.159c10.784,-4.596 23.689,-17.679 27.048,-27.579c4.066,-11.668 3.005,-30.23 -2.298,-40.484c-10.254,-19.8 -30.23,-31.291 -54.804,-31.291c-13.612,-0.177 -37.655,4.596 -39.6,7.779c-0.53,0.884 -0.177,3.889 0.884,6.541l2.121,4.773l11.845,-3.005c38.186,-10.077 67.002,3.536 70.537,33.412c1.414,12.375 -1.768,21.568 -10.43,30.23c-18.386,18.032 -45.611,14.85 -62.229,-7.425c-7.779,-10.607 -12.198,-19.8 -30.407,-64.527c-27.402,-67.179 -35.004,-82.029 -50.737,-97.939c-12.905,-13.082 -21.921,-18.739 -38.539,-24.75Zm-757.35,936.257c-20.33,-11.137 -39.07,-9.193 -55.687,5.834c-12.375,11.137 -17.679,22.982 -17.679,39.07c0,15.734 4.243,27.225 14.496,38.362c10.077,11.137 21.745,17.502 39.6,22.098c18.562,4.773 19.623,4.596 20.684,-2.298c0.354,-3.005 0.53,-5.834 0.354,-6.187c-0.354,-0.354 -7.071,-2.121 -15.38,-4.066c-26.871,-6.364 -41.368,-18.386 -45.787,-37.832c-2.829,-12.905 -0.884,-24.043 6.011,-33.059c7.425,-9.723 18.739,-15.557 29.877,-15.557c11.314,0 18.386,3.182 27.402,12.552c14.496,15.204 16.618,31.821 12.021,94.58c-3.536,47.025 -2.829,87.686 1.768,106.425c10.43,42.782 45.434,71.068 88.216,71.068c41.545,0 72.659,-25.811 77.962,-64.704c4.243,-32.529 -21.214,-72.836 -57.455,-90.691c-14.496,-7.071 -50.207,-18.386 -52.152,-16.441c-0.53,0.53 -0.884,3.536 -0.884,6.718c0,5.657 0.354,5.834 10.254,7.955c39.954,8.309 66.471,25.987 80.084,53.743c5.48,11.314 6.011,13.612 6.011,29.17c0,15.027 -0.53,17.855 -5.127,27.048c-20.154,39.6 -76.725,46.318 -111.552,13.436c-11.668,-10.961 -19.27,-25.457 -23.159,-44.02c-3.182,-15.911 -3.536,-56.218 -0.707,-89.277c1.237,-12.729 2.121,-35.357 2.121,-50.384c0.177,-23.336 -0.354,-29.17 -3.536,-38.893c-5.304,-15.734 -14.673,-27.579 -27.755,-34.65Zm69.477,-726.412c-19.093,-4.42 -35.357,-2.121 -53.212,7.602c-26.341,14.143 -42.075,46.848 -36.771,75.664c7.248,39.246 39.954,65.057 78.846,62.052c38.009,-2.829 66.118,-30.584 69.3,-68.416c1.768,-22.098 -6.541,-42.429 -24.043,-58.87c-10.43,-9.723 -19.623,-14.496 -34.12,-18.032Zm-36.064,16.971c14.143,-4.596 24.573,-4.596 39.246,0c15.734,4.95 29.877,18.386 35.887,34.296c6.011,15.557 4.773,33.236 -3.359,48.262c-6.718,12.729 -12.905,18.562 -26.518,24.927c-8.309,3.889 -12.198,4.596 -26.518,4.596c-14.673,0 -17.855,-0.53 -25.634,-4.773c-12.021,-6.364 -20.861,-15.204 -26.871,-27.402c-4.243,-9.016 -4.95,-12.198 -4.95,-26.164c0,-13.789 0.707,-17.148 4.773,-24.927c6.895,-12.905 20.507,-24.573 33.943,-28.816Zm1175.801,509.85c-40.661,-10.43 -82.382,16.441 -91.221,58.87c-8.839,43.136 21.745,83.443 65.587,86.448c33.236,2.298 61.345,-14.32 75.487,-44.727c4.42,-9.37 4.95,-12.375 4.95,-28.993c0,-16.971 -0.53,-19.446 -5.48,-30.054c-10.077,-21.214 -27.402,-35.887 -49.323,-41.545Zm-39.246,16.795c13.082,-5.127 35.534,-4.066 48.262,2.298c22.098,11.137 36.064,39.6 30.937,63.112c-4.243,19.977 -16.618,35.18 -35.357,43.843c-14.32,6.718 -34.12,6.718 -48.086,0.177c-30.937,-14.496 -42.782,-50.207 -27.048,-81.321c5.304,-10.607 19.623,-23.336 31.291,-28.109Zm-1190.828,-368.598c-11.137,-3.359 -19.27,-3.182 -29.523,0.354c-23.866,8.309 -40.661,32.352 -40.661,57.809c0.177,11.491 2.298,21.037 9.016,38.362l5.48,13.966l13.436,-7.425l-6.011,-12.729c-7.955,-16.795 -10.077,-31.468 -6.718,-44.55c3.712,-14.32 11.668,-24.927 22.629,-30.054c22.275,-10.43 44.55,-1.061 51.798,21.745c2.475,8.132 2.652,10.961 0.884,19.623c-4.42,21.214 -14.32,30.407 -79.023,74.604c-55.157,37.479 -67.709,49.146 -79.377,72.836c-12.021,24.573 -12.552,52.505 -1.237,76.548c6.011,12.905 19.8,28.639 30.937,35.18c22.982,13.436 50.207,15.38 72.129,5.127c35.711,-16.795 54.804,-56.748 46.671,-98.116c-3.712,-19.093 -16.795,-50.561 -21.391,-52.152c-1.061,-0.177 -3.712,1.061 -6.011,2.829l-4.42,3.359l8.132,16.618c14.32,28.816 16.795,51.798 8.132,75.487c-7.248,19.8 -25.634,37.302 -44.55,42.605c-12.552,3.536 -33.412,1.591 -45.434,-4.066c-12.021,-5.834 -26.871,-20.33 -32.705,-32.352c-13.612,-27.755 -6.541,-63.82 16.795,-87.155c12.729,-12.729 24.043,-21.391 62.052,-47.025c68.593,-46.495 81.145,-60.107 82.736,-90.337c0.707,-10.961 0,-14.143 -4.243,-23.689c-6.011,-13.436 -17.148,-23.689 -29.523,-27.402Zm742.146,864.482c-27.048,-7.071 -64.527,-0.177 -102.536,18.562c-18.916,9.546 -49.5,30.407 -49.5,33.943c0,1.061 2.652,3.536 5.834,5.48l5.657,3.359l8.486,-6.895c20.684,-17.148 42.075,-29.17 68.062,-38.009c14.673,-4.95 18.386,-5.657 37.479,-5.657c25.634,0 35.711,3.182 50.561,16.441c14.496,12.905 20.154,26.164 20.154,47.025c-0.177,13.612 -0.884,17.325 -4.95,25.634c-6.541,13.436 -14.32,22.275 -26.695,30.407c-16.618,10.784 -30.054,14.143 -54.096,14.143c-50.737,-0.354 -93.52,-20.507 -186.509,-87.862c-22.629,-16.441 -37.832,-24.75 -52.152,-28.462c-45.434,-11.668 -82.029,23.512 -67.002,64.173c7.071,18.562 26.164,33.059 49.677,37.832c12.729,2.475 30.761,-0.354 45.257,-7.248c11.845,-5.48 35.711,-20.861 35.711,-22.805c0,-0.707 -2.475,-3.005 -5.48,-5.304c-4.95,-3.712 -5.657,-3.889 -9.193,-1.061c-24.75,18.032 -36.771,22.982 -56.041,22.805c-16.971,0 -29.17,-5.127 -38.716,-15.911c-22.805,-25.987 -7.248,-60.637 27.402,-60.814c20.684,0 31.645,5.304 80.614,39.954c70.007,49.323 95.287,63.112 135.771,73.366c35.18,8.839 65.764,6.011 94.227,-8.662c19.446,-9.9 30.937,-21.037 39.777,-39.07c6.364,-12.905 6.541,-13.789 6.541,-32.705c0,-18.032 -0.354,-20.507 -5.127,-30.23c-9.723,-19.8 -30.761,-36.418 -53.212,-42.429Zm435.069,-346.677c-32.529,-8.662 -71.421,7.955 -91.045,38.893c-12.021,19.27 -14.85,29.7 -15.557,61.168c-0.354,15.027 0,28.286 0.707,29.523c1.061,1.414 3.182,1.768 6.718,0.707l5.304,-1.414l-0.53,-18.386c-0.707,-26.871 1.768,-42.252 9.193,-57.455c14.143,-28.462 46.671,-46.141 76.018,-41.368c42.075,6.895 64.527,56.395 44.196,97.232c-7.779,15.38 -18.739,25.28 -39.07,35.887c-21.037,10.784 -39.07,16.618 -93.166,30.407c-62.052,15.911 -71.245,19.623 -85.741,35.357c-19.623,21.214 -20.861,50.03 -3.182,69.3c11.491,12.552 18.739,15.557 37.479,15.557c13.436,0 17.325,-0.707 25.634,-4.596c19.093,-9.016 31.821,-26.518 35.357,-48.793c1.945,-11.137 1.945,-28.816 0.177,-36.064c-0.884,-4.066 -1.591,-4.42 -6.541,-3.005l-5.657,1.414l-0.707,20.861c-0.53,16.618 -1.414,22.452 -4.596,29.523c-11.314,24.927 -38.539,35.887 -60.637,24.22c-7.602,-3.889 -10.43,-6.718 -14.32,-14.32c-6.187,-11.845 -6.541,-22.452 -0.707,-34.65c9.37,-20.154 22.629,-26.518 90.868,-43.489c49.5,-12.198 61.345,-16.087 86.271,-28.109c17.679,-8.486 23.512,-12.375 32.705,-21.745c12.729,-12.729 19.623,-24.22 23.689,-39.246c4.95,-19.27 2.475,-43.843 -6.011,-60.637c-8.662,-16.971 -27.225,-31.645 -46.848,-36.771Zm-583.923,-927.064c-35.534,-13.436 -76.548,2.121 -93.166,35.357c-15.734,31.645 -10.961,62.759 13.259,87.155c11.845,11.668 23.689,17.855 41.014,20.684c32.352,5.657 66.648,-12.198 80.437,-41.898c9.9,-21.745 6.541,-57.102 -7.248,-74.957c-8.309,-11.137 -22.452,-21.921 -34.296,-26.341Zm-47.732,13.789c10.784,-4.596 34.65,-3.712 45.611,1.768c13.082,6.364 22.098,15.38 28.286,27.932c4.95,10.077 5.834,13.436 5.657,25.104c0,28.993 -15.38,50.207 -42.075,57.809c-35.004,10.254 -71.245,-13.612 -76.018,-49.854c-3.359,-25.457 13.082,-52.152 38.539,-62.759Zm84.327,149.914c-29.346,-3.536 -88.216,-3.359 -116.679,0c-73.189,8.839 -147.439,33.059 -207.9,67.886c-23.336,13.436 -62.936,39.777 -78.493,52.329c-63.112,50.207 -114.204,113.32 -150.975,186.332c-37.302,74.78 -52.859,133.65 -57.809,220.982c-5.48,96.702 12.905,184.741 56.748,272.25c13.436,26.695 35.18,62.582 50.561,83.266c53.92,72.659 123.396,130.821 203.834,171.128c61.345,30.761 123.22,49.146 189.161,56.041c31.821,3.536 106.425,2.475 133.65,-1.768c42.782,-6.541 90.691,-19.093 125.341,-33.059c159.107,-63.996 279.675,-193.757 330.059,-355.162c28.816,-92.282 31.821,-189.337 8.662,-287.277c-22.805,-96.702 -77.962,-194.818 -150.975,-268.714c-26.518,-26.695 -46.318,-42.429 -85.918,-68.416c-42.252,-27.579 -49.5,-31.821 -76.371,-44.55c-57.809,-27.402 -115.971,-44.727 -172.896,-51.268Zm-84.857,12.552c129.054,-7.248 250.682,33.236 365.946,122.159c30.23,23.336 78.139,74.25 104.304,111.021c36.595,51.445 69.123,121.982 83.266,181.028c13.259,54.627 16.618,87.862 15.204,147.616c-1.414,58.162 -7.955,96.525 -25.811,150.798c-39.6,120.921 -125.341,227.346 -236.539,294.171c-66.295,39.777 -140.545,65.234 -216.209,74.073c-23.512,2.652 -95.818,2.652 -120.214,0c-40.307,-4.596 -97.409,-19.093 -136.125,-34.65c-77.786,-31.291 -152.743,-83.796 -206.132,-144.434c-54.45,-61.698 -86.448,-116.148 -112.789,-192.166c-20.684,-59.4 -29.877,-128.346 -25.987,-195.348c1.061,-19.27 3.182,-43.136 4.596,-52.859c13.789,-94.58 53.212,-183.857 114.734,-260.228c19.093,-23.689 57.809,-62.405 80.614,-80.437c91.575,-72.659 199.414,-114.557 311.143,-120.745Zm93.696,15.38c-18.032,-2.475 -84.504,-4.596 -100.768,-3.182c-145.671,12.729 -271.543,76.548 -366.653,186.155c-44.904,51.621 -80.084,114.38 -101.475,180.498c-16.971,52.505 -22.982,88.923 -24.573,146.909c-1.945,72.836 6.718,127.816 30.407,193.403c29.7,82.029 84.68,161.759 152.036,219.921c80.968,70.007 170.775,111.905 274.018,127.816c44.196,6.718 112.436,6.187 156.278,-1.414c108.9,-18.562 205.778,-67.886 284.448,-144.611c68.239,-66.471 114.204,-142.666 140.721,-233.003c34.65,-117.562 24.22,-249.621 -28.639,-363.648c-41.545,-89.63 -106.779,-165.825 -189.337,-220.982c-71.952,-48.086 -145.318,-76.548 -226.462,-87.862Zm-98.796,375.251c-8.423,-0.016 -16.127,0.111 -23.822,-0.106c-4.634,-0.13 -6.461,1.7 -6.409,6.36c0.134,12.029 -0.208,24.065 0.001,36.091c0.097,5.581 -2.288,8.06 -7.634,7.994c-15.613,-0.194 -31.227,-0.305 -46.834,-0.729c-5.542,-0.149 -5.166,-4.581 -5.165,-8.533c0.012,-26.711 -0.163,-53.424 0.025,-80.134c0.127,-18.076 -3.647,-17.787 17.884,-17.597c43.066,0.382 86.131,0.757 129.197,0.856c17.556,0.039 35.12,-0.473 52.667,-1.101c6.122,-0.22 8.923,1.706 8.841,8.09c-0.182,14.195 -0.146,28.395 0.075,42.59c0.08,5.113 -2.136,6.761 -6.941,6.729c-37.054,-0.236 -74.108,-0.356 -111.884,-0.51Zm266.415,370.069c-5.523,0.116 -7.69,-2.437 -7.705,-7.096c-0.046,-14.892 -0.013,-29.786 -0.162,-44.677c-0.043,-4.306 1.996,-6.226 6.035,-6.276c10.091,-0.13 20.182,-0.225 30.273,-0.223c4.12,0.001 6.015,2.248 6.028,6.393c0.014,4.069 -1.816,6.539 -5.835,6.736c-5.755,0.282 -11.528,0.159 -17.294,0.228c-2.554,0.032 -5.072,0.429 -5.163,3.656c-0.095,3.38 2.193,4.53 5.215,4.561c3.844,0.039 7.69,-0.013 11.534,0.052c4.8,0.081 7.517,1.937 7.498,7.379c-0.017,5.437 -2.93,6.409 -7.356,6.278c-4.081,-0.123 -8.169,-0.036 -12.253,-0.049c-3.141,-0.01 -4.913,1.154 -4.866,4.691c0.046,3.364 1.398,4.78 4.756,4.734c5.526,-0.077 11.054,0.107 16.58,0.078c4.864,-0.023 7.612,1.583 7.45,7.165c-0.153,5.293 -2.895,6.447 -7.388,6.395c-8.891,-0.104 -17.783,-0.019 -27.346,-0.025Zm44.931,-277.718l-75.842,0c0.678,-36.48 31.47,-73.884 75.947,-75.606l0,32.959l7.076,0l0,-32.807c39.539,0.942 74.193,35.069 75.305,75.369l-75.081,0l0,-11.261l62.53,0c-3.242,-12.278 -8.768,-23.073 -17.449,-32.127c-9.767,-10.186 -21.594,-16.765 -35.482,-20.01l0,36.952l26.071,0l-9.106,-9.277l-0.373,0.169l0,4.542l-10.944,0l0,-22.96c11.611,0.98 35.781,24.292 38.862,37.684l-54.17,0l0,-16.875l-7.136,0l0,16.815l-54.615,0c7.823,-18.121 21.073,-30.391 39.215,-38.023l0,23.358l-10.876,0l0,-4.534l-0.478,-0.271l-9.082,8.779l0.44,0.56l25.538,0l0,-36.877c-12.052,2.695 -22.601,8.162 -31.738,16.352c-10.716,9.604 -17.395,21.626 -21.144,35.593l62.529,0l0,11.497Zm-373.828,31.323c-7.378,0.114 -14.104,0.107 -20.827,0.278c-4.907,0.124 -7.29,-1.023 -7.003,-7.002c0.658,-13.686 0.679,-27.434 0.212,-41.132c-0.244,-7.131 2.402,-8.966 9.131,-9.094c54.362,-1.028 108.714,0.948 163.071,0.406c4.562,-0.046 9.123,-0.15 13.683,-0.143c4.14,0.004 5.938,1.975 5.883,6.289c-0.181,14.438 -0.233,28.881 -0.048,43.319c0.065,5.016 -1.804,6.709 -6.798,6.69c-46.93,-0.179 -93.861,-0.191 -140.792,-0.195c-5.286,0 -10.574,0.351 -16.513,0.584Zm170.781,190.593c11.434,-3.859 13.184,-2.712 13.273,8.505c0.104,13.225 -0.042,26.451 0.082,39.676c0.048,5.013 -1.755,7.543 -7.129,7.599c-5.143,0.053 -6.655,-2.297 -6.612,-7.044c0.147,-16.088 0.069,-32.178 0.386,-48.736Zm-144.9,-171.836c5.585,0.119 6.476,3.251 6.438,7.349c-0.093,10.114 -0.134,20.23 -0.033,30.342c0.1,9.972 0.188,9.97 9.938,9.968c45.277,-0.001 90.555,-0.007 135.832,-0.003c11.687,0.001 11.665,0.017 11.655,11.928c-0.012,11.56 -0.431,23.145 0.22,34.669c0.403,7.154 -2.016,9.221 -8.91,9.175c-36.124,-0.241 -72.25,-0.123 -108.376,-0.12c-30.585,0.003 -61.173,-0.166 -91.756,0.169c-6.866,0.075 -9.508,-1.805 -9.094,-8.911c1.7,-29.104 0.354,-58.246 0.607,-87.37c0.045,-5.228 2.016,-7.339 7.285,-7.278c15.171,0.178 30.344,0.064 46.194,0.082Zm355.302,-43.42l75.098,0c-0.831,38.34 -33.49,74.086 -75.205,75.553l0,-32.917l-7.113,0l0,32.995c-42.794,-1.49 -74.955,-37.167 -76.034,-75.522l75.871,0l0,11.369l-62.508,0c3.108,11.819 8.369,22.265 16.558,31.122c9.861,10.666 21.945,17.541 36.291,20.904l0,-36.912l-26.024,0l9.135,9.275l0.428,-0.221l0,-4.52l10.842,0l0,22.949c-11.42,-0.782 -35.67,-24.186 -38.851,-37.674l54.274,0l0,16.919l7.107,0l0,-16.913l54.289,-0.001c-2.976,13.293 -26.368,35.92 -38.93,37.736l0,-22.988l10.887,0l0,4.461l0.45,0.247l9.147,-9.267l-26.107,0l0,36.887c11.328,-2.49 21.337,-7.494 30.141,-14.91c11.599,-9.769 18.824,-22.258 22.776,-36.981l-62.521,0l0,-11.591Zm-694.533,146.684c-8.43,-0.007 -16.139,0.04 -23.846,-0.045c-8.911,-0.1 -9.662,-0.718 -9.578,-9.423c0.347,-36.6 0.997,-73.197 1.154,-109.797c0.084,-19.955 -0.585,-39.913 -0.961,-59.87c-0.042,-2.183 -0.536,-4.472 1.902,-5.707c2.19,-1.109 3.569,0.463 4.997,1.781c15.202,14.04 30.279,28.22 45.694,42.025c5.795,5.189 8.361,10.82 8.296,18.797c-0.302,37.573 0.001,75.151 0.038,112.729c0.009,8.552 -0.964,9.448 -9.628,9.511c-5.782,0.042 -11.563,0 -18.066,-0.001Zm579.746,79.423c-5.265,-0.457 -7.121,1.581 -7.029,6.269c0.192,9.866 0,19.738 0.039,29.608c0.019,4.782 0.325,9.02 -6.798,9.127c-7.564,0.113 -7.183,-4.436 -7.139,-9.439c0.071,-8.426 0.081,-16.852 0.072,-25.276c-0.01,-9.748 -0.026,-9.889 -9.777,-10.202c-4.326,-0.14 -6.781,-1.563 -7.051,-6.203c-0.237,-4.065 1.09,-6.713 5.399,-6.8c11.789,-0.234 23.58,-0.395 35.371,-0.393c5.123,0 5.237,3.91 5.403,7.68c0.265,5.973 -3.935,5.572 -8.489,5.629Zm-413.676,-296.561c0.039,-25.523 0.052,-50.324 0.132,-75.123c0.03,-9.334 1.185,-10.428 10.389,-10.436c13.966,-0.012 27.934,0.155 41.895,-0.103c5.957,-0.11 7.706,1.944 7.694,8.056c-0.13,64.521 0.069,129.042 0.214,193.564c0.004,1.92 0.632,4.004 -1.444,5.171c-2.138,1.201 -3.637,-0.379 -5.049,-1.661c-14.773,-13.43 -28.994,-27.54 -44.495,-40.066c-8.589,-6.94 -9.743,-14.728 -9.471,-24.506c0.5,-18.046 0.139,-36.114 0.136,-54.896Zm265.868,286.706c3.293,16.684 3.699,33.015 3.336,49.38c-0.097,4.38 -3.206,5.399 -7.042,5.344c-4.11,-0.058 -6.373,-1.933 -6.408,-6.086c-0.062,-7.391 -0.017,-14.783 -1.587,-22.717c-3.095,4.397 -6.233,8.763 -9.273,13.196c-4.98,7.262 -7.1,7.33 -11.957,0.315c-2.823,-4.078 -5.692,-8.124 -9.12,-13.007c-3.21,7.463 -1.925,14.219 -1.898,20.773c0.017,4.477 -0.57,7.501 -6.032,7.55c-5.058,0.046 -7.814,-1.765 -7.66,-7.089c0.439,-15.159 0.674,-30.328 1.376,-45.475c0.27,-5.841 4.151,-7.232 8.982,-3.458c5.39,4.209 9.026,9.957 12.67,15.633c2.154,3.355 4.17,6.8 6.722,10.977c6.279,-8.351 11.685,-15.932 17.545,-23.145c2.413,-2.969 5.314,-7.028 10.345,-2.191Zm-285.737,5.075c6.032,6.441 10.649,13.514 17.709,19.108c2.67,-7.076 1.933,-13.848 1.781,-20.457c-0.127,-5.542 2.191,-8.252 7.467,-8.267c5.269,-0.013 6.084,3.896 6.094,8.028c0.035,14.693 0.001,29.386 -0.036,44.079c-0.009,2.957 -0.153,6.031 -3.734,6.975c-3.119,0.822 -5.477,-0.516 -7.554,-2.969c-8.069,-9.532 -16.271,-18.95 -25.898,-30.121c0,9.769 -0.142,17.774 0.051,25.77c0.12,4.984 -1.333,7.612 -6.949,7.527c-5.698,-0.087 -6.829,-3.103 -6.794,-7.861c0.107,-14.454 0.052,-28.907 0.11,-43.361c0.012,-2.866 -0.304,-6.103 2.806,-7.671c3.118,-1.574 5.633,0.75 7.853,2.346c2.505,1.801 4.5,4.313 7.093,6.873Zm593.892,49.74c-16.181,-0.029 -16.136,-0.029 -16.081,-15.186c0.043,-11.785 0.15,-23.578 -0.163,-35.355c-0.142,-5.293 1.953,-7.603 7.064,-7.572c10.523,0.064 21.364,-1.408 30.921,4.495c11.376,7.029 15.954,19.998 12.274,33.33c-3.315,12.008 -14.228,20.043 -27.543,20.267c-1.925,0.032 -3.849,0.014 -6.471,0.02Zm19.747,-23.858c0.97,-13.81 -4.209,-20.976 -15.133,-21.286c-4.772,-0.136 -7.268,1.526 -7.118,6.602c0.14,4.805 -0.201,9.626 0.014,14.423c0.152,3.404 -1.758,8.187 2.356,9.728c4.657,1.746 9.987,1.623 14.508,-1.529c2.414,-1.684 4.18,-3.958 5.371,-7.937Zm-666.224,-295.658c38.326,35.811 76.185,71.382 114.33,106.643c17.712,16.373 17.842,16.1 18.035,39.789c0.133,16.114 -0.679,32.249 0.818,48.342c0.204,2.197 0.311,4.699 -2.095,5.639c-2.741,1.07 -4.354,-1.318 -6.086,-2.934c-26.552,-24.805 -53.063,-49.651 -79.659,-74.41c-36.811,-34.27 -73.579,-68.587 -110.575,-102.658c-18.228,-16.788 -36.866,-33.134 -55.467,-49.511c-3.534,-3.111 -5.451,-6.417 -5.246,-11.174c0.955,-22.154 -0.941,-44.265 -1.068,-66.405c-0.016,-2.819 -0.932,-6.258 2.332,-7.741c3.459,-1.571 5.181,1.914 7.071,3.754c38.446,37.447 78.07,73.641 117.607,110.666Zm517.705,-17.788c-13.585,16.75 -20.535,35.78 -23.64,56.331c-1.85,12.248 1.924,23.845 5.379,35.309c9.504,31.536 31.187,51.863 60.925,64.096c7.229,2.975 15.224,4.266 22.983,5.701c4.13,0.763 5.861,2.391 5.834,6.542c-0.103,15.652 -0.155,31.307 -0.009,46.958c0.048,5.202 -2.358,6.892 -7.138,6.344c-49.221,-5.636 -90.461,-26.088 -119.465,-67.083c-15.127,-21.379 -24.552,-45.444 -27.22,-72.071c-3.728,-37.204 3.057,-72.165 22.992,-103.537c24.667,-38.82 60.347,-62.661 105.89,-71.061c6.142,-1.132 12.342,-1.951 18.514,-2.923c4.199,-0.661 6.369,0.85 6.349,5.374c-0.066,15.895 -0.071,31.789 0.045,47.683c0.03,4.153 -2.155,5.091 -5.77,5.626c-26.307,3.901 -48.014,16.205 -65.669,36.708Zm-368.479,310.784c0.033,2.869 0.127,5.036 0.087,7.2c-0.072,3.909 1.722,5.697 5.694,5.603c5.051,-0.12 10.107,0.022 15.162,0.009c4.05,-0.012 5.496,2.21 5.415,5.973c-0.077,3.594 -0.539,7.321 -4.965,7.431c-10.337,0.259 -20.692,0.173 -31.029,-0.134c-3.851,-0.116 -4.999,-3.163 -4.984,-6.696c0.065,-14.682 0.166,-29.365 0.104,-44.047c-0.026,-6.119 3.826,-6.946 8.606,-7.016c5.039,-0.074 5.896,3.108 5.888,7.145c-0.017,7.943 0.013,15.886 0.023,24.533Zm-168.288,18.012c-10.82,13.803 -35.033,10.347 -41.577,-3.683c-1.713,-3.672 -1.752,-7.394 -2.177,-11.203c-1.074,-9.623 -0.176,-19.248 -0.304,-28.868c-0.059,-4.55 2.199,-6.502 6.724,-6.333c4.485,0.168 6.464,2.188 6.382,6.766c-0.155,8.666 -0.172,17.34 0.043,26.003c0.23,9.232 4.627,13.588 12.684,13.05c5.993,-0.4 10.234,-6.7 9.329,-14.67c-0.958,-8.456 0.941,-16.805 0.45,-25.228c-0.321,-5.483 3.679,-6.221 7.722,-6.232c4.3,-0.01 6.029,2.746 5.473,6.732c-1.408,10.079 -0.491,20.202 -0.704,30.301c-0.101,4.756 -1.01,9.036 -4.046,13.365Zm749.757,-356.424c20.591,29.689 30.556,62.506 28.335,97.68c-2.702,42.784 -19.61,79.848 -51.947,109.203c-26.992,24.503 -58.564,37.999 -94.703,41.479c-4.978,0.478 -6.612,-1.323 -6.581,-5.86c0.1,-15.408 0.16,-30.814 0.205,-46.221c0.013,-4.465 1.62,-6.574 6.581,-7.479c36.931,-6.742 63.934,-27.164 79.034,-61.471c14.381,-32.673 7.238,-75.084 -17.596,-101.649c-16.63,-17.791 -36.135,-30.095 -60.539,-33.563c-5.944,-0.846 -7.976,-3.427 -7.797,-9.487c0.412,-13.949 0.228,-27.923 0.012,-41.883c-0.091,-5.905 1.982,-8.041 8.145,-7.618c41.818,2.872 75.595,21.811 104.009,51.554c4.474,4.683 8.372,9.918 12.842,15.316Zm-498.727,315.711c0.004,14.17 -0.039,27.651 0.038,41.13c0.026,4.536 -0.452,8.155 -6.458,7.983c-5.52,-0.159 -7.583,-2.534 -7.488,-8.044c0.236,-13.718 0.265,-27.446 -0.058,-41.159c-0.13,-5.502 1.288,-8.877 7.235,-9.141c6.214,-0.276 7.047,3.677 6.732,9.231Zm692.837,-475.832c-19.093,-9.193 -42.959,-5.304 -57.632,9.193c-12.375,12.375 -15.027,19.27 -15.027,38.539c0,14.673 0.53,18.032 4.773,26.695c2.829,5.48 8.486,13.436 12.905,17.855c9.193,8.839 35.18,25.28 37.655,23.689c1.061,-0.53 2.652,-3.359 3.536,-6.187c1.768,-5.127 1.768,-5.304 -9.37,-10.607c-23.159,-10.784 -36.595,-29.17 -36.948,-50.561c-0.177,-14.143 5.127,-24.927 16.264,-32.882c7.779,-5.657 9.193,-6.011 21.921,-6.011c12.198,0 14.143,0.53 21.214,5.48c4.95,3.712 9.546,9.37 13.436,16.618c4.773,9.37 5.657,12.729 5.657,23.336c0,17.855 -6.895,36.771 -32.705,89.807c-31.291,64.173 -36.948,86.625 -29.523,116.325c6.541,25.457 23.336,47.202 45.08,57.632c13.612,6.718 36.595,8.309 50.914,3.712c25.104,-8.309 41.014,-21.745 52.152,-44.373c6.187,-12.375 6.895,-15.204 7.425,-30.761c1.591,-38.893 -16.087,-67.532 -58.516,-94.58l-4.773,-3.005l-2.829,6.541c-1.414,3.536 -2.475,6.718 -2.121,7.071c0.354,0.177 6.187,4.066 12.905,8.309c14.85,9.546 28.993,24.396 35.357,37.479c9.723,19.8 9.9,45.08 0.707,64.173c-5.657,11.668 -20.861,26.341 -32.882,31.821c-13.082,6.011 -35.004,7.602 -47.202,3.536c-28.639,-9.723 -48.793,-41.545 -46.495,-73.543c1.237,-18.386 6.364,-31.468 33.943,-88.57c29.17,-60.107 31.821,-67.532 31.821,-91.045c0,-15.38 -0.53,-18.916 -4.596,-27.579c-5.834,-12.198 -15.734,-22.629 -27.048,-28.109Zm-1165.548,516.214c-13.082,-4.066 -30.584,-4.42 -43.312,-0.884c-19.8,5.48 -39.07,21.921 -47.732,41.191c-4.596,10.077 -5.657,14.496 -6.364,29.877c-0.707,14.673 -0.177,19.977 2.829,30.054c6.718,22.098 23.866,43.312 45.434,56.218c10.961,6.541 40.13,16.795 47.732,16.795c3.889,0 4.42,-0.707 4.42,-7.071c0,-5.657 -0.707,-7.071 -3.182,-7.071c-1.768,0 -9.723,-1.945 -17.679,-4.42c-45.257,-13.436 -69.654,-43.666 -67.179,-83.089c1.237,-18.032 7.955,-31.821 21.921,-44.904c13.789,-12.905 24.22,-16.971 43.489,-16.795c11.491,0.177 15.38,1.061 24.927,5.657c21.568,10.607 37.655,31.821 42.782,56.395c4.596,21.568 4.95,42.075 1.768,86.271c-3.712,50.384 -3.005,80.084 2.298,94.757c12.198,34.12 44.02,50.384 75.664,38.539c35.357,-13.259 41.191,-57.986 11.491,-86.979c-12.552,-12.375 -29.877,-19.8 -54.273,-23.159c-7.071,-1.061 -7.425,-0.884 -8.486,4.596c-0.53,3.005 -0.53,6.187 0.177,6.718c0.884,0.707 7.602,2.121 15.38,3.182c17.325,2.652 26.871,6.895 37.125,16.264c10.607,9.9 15.204,19.623 15.204,32.705c0,19.27 -9.723,31.645 -28.639,36.418c-16.618,4.066 -35.534,-4.596 -44.904,-20.861c-10.077,-16.971 -11.845,-44.02 -6.718,-105.364c5.127,-62.759 -2.298,-101.652 -24.22,-127.109c-10.607,-12.552 -26.871,-23.866 -39.954,-27.932Zm273.841,289.928c-21.214,-6.541 -45.434,-3.359 -62.405,8.486c-40.307,27.579 -44.373,82.736 -8.839,115.795c12.905,11.845 22.098,16.441 38.716,19.093c33.236,5.48 63.643,-10.254 78.67,-40.837c5.304,-10.784 5.657,-12.552 5.657,-30.937c0,-17.325 -0.53,-20.507 -4.773,-29.523c-9.546,-20.684 -26.518,-35.711 -47.025,-42.075Zm-38.186,13.436c25.987,-8.309 57.279,6.187 69.123,31.821c14.85,32.352 1.061,68.239 -30.584,80.261c-13.789,5.127 -34.827,4.42 -46.318,-1.591c-10.961,-5.657 -21.921,-16.264 -27.932,-27.048c-4.596,-8.486 -5.127,-10.961 -5.127,-26.164c0,-13.259 0.707,-18.386 3.712,-24.927c7.248,-15.557 20.33,-27.048 37.125,-32.352Zm143.903,-1179.16c-30.407,-9.016 -60.991,7.425 -77.609,41.721c-3.889,8.132 -7.602,16.441 -8.132,18.562c-1.061,3.889 -0.884,3.889 9.9,6.895c2.121,0.53 4.066,-2.475 7.779,-12.552c5.48,-15.027 15.204,-29.17 24.043,-35.18c19.977,-13.436 47.202,-10.43 60.637,6.541c4.42,5.48 5.48,8.662 6.011,18.209c1.237,20.154 -5.304,31.114 -24.396,40.661c-8.662,4.42 -11.491,4.95 -25.634,4.773c-16.264,-0.177 -24.927,-1.945 -68.946,-13.789c-71.421,-19.446 -99.53,-20.684 -129.23,-5.657c-26.871,13.612 -44.904,42.429 -44.904,71.952c0,32.175 14.32,54.45 44.02,68.77c13.082,6.187 13.789,6.364 34.827,6.364l21.214,0l15.734,-7.779c27.579,-13.612 48.086,-38.362 55.687,-67.179c2.298,-8.486 0.884,-10.784 -6.541,-10.784c-3.182,0 -4.596,2.298 -8.486,14.143c-5.304,15.911 -15.38,32.175 -25.104,40.837c-3.536,3.005 -12.552,8.486 -19.8,12.021c-12.729,6.011 -14.496,6.364 -31.114,6.187c-22.982,0 -34.827,-4.42 -47.909,-17.502c-15.027,-15.027 -17.502,-21.214 -17.502,-44.196c0,-18.562 0.177,-19.977 5.834,-30.584c10.784,-20.684 27.932,-33.412 50.737,-37.655c19.977,-3.712 39.6,-1.061 97.232,13.612c50.737,12.905 53.92,13.612 74.25,13.789c21.037,0.177 21.568,0 33.412,-5.834c45.964,-23.336 42.252,-82.029 -6.011,-96.348Zm777.326,904.966c-18.739,-7.779 -42.252,-1.945 -58.516,14.32c-14.673,14.496 -20.33,33.943 -16.971,58.339c2.652,20.154 2.829,20.507 9.546,19.093c3.005,-0.53 6.011,-1.414 6.541,-1.768c0.53,-0.354 -0.177,-6.011 -1.414,-12.552c-5.657,-26.871 0.53,-47.732 17.855,-59.754c28.286,-19.446 61.521,-0.177 59.046,34.296c-1.237,18.386 -13.789,31.821 -38.893,41.545c-6.895,2.652 -34.827,10.607 -62.229,17.855c-57.809,15.204 -64.88,17.502 -84.504,27.755c-16.264,8.309 -34.65,25.104 -42.605,38.716c-25.104,42.782 -12.021,90.161 30.23,109.961c10.077,4.773 14.32,5.657 28.993,6.187c25.634,1.061 42.075,-4.42 64.704,-21.391c10.254,-7.779 22.805,-24.396 27.402,-35.887c5.127,-13.259 8.309,-33.943 8.309,-53.743l0,-19.8l-5.657,1.237c-3.182,0.707 -6.364,1.591 -7.071,2.121c-0.884,0.354 -1.414,10.607 -1.414,22.629c0,18.562 -0.707,24.043 -4.42,36.064c-10.961,34.65 -39.6,55.334 -76.902,55.511c-18.739,0.177 -31.468,-4.42 -44.02,-15.734c-32.175,-28.993 -23.159,-82.029 19.093,-110.314c12.375,-8.486 33.589,-15.557 85.918,-29.17c60.284,-15.734 74.25,-20.33 89.63,-30.23c25.634,-16.441 34.12,-42.605 22.629,-69.3c-4.243,-9.9 -16.264,-22.275 -25.28,-25.987Zm-251.566,262.173c-9.9,-4.596 -14.32,-5.48 -27.932,-6.011c-10.254,-0.53 -18.562,0.177 -23.159,1.591c-54.627,18.209 -72.836,85.034 -33.766,123.927c37.302,37.302 99,26.341 121.982,-21.921c5.127,-10.607 5.48,-12.905 5.48,-30.054c0,-17.325 -0.354,-19.27 -6.011,-31.291c-7.425,-15.911 -20.154,-28.639 -36.595,-36.241Zm-46.671,10.077c20.154,-5.48 41.014,-0.177 55.864,14.32c13.966,13.436 17.502,22.275 17.502,43.136c0,14.85 -0.53,17.855 -4.773,25.811c-6.364,12.021 -21.391,25.457 -33.059,29.7c-12.375,4.42 -34.65,3.359 -46.318,-2.298c-10.961,-5.127 -21.745,-16.264 -27.755,-28.286c-4.066,-8.486 -4.773,-12.021 -4.596,-24.927c0,-15.911 2.298,-23.689 10.607,-35.711c6.011,-8.662 20.507,-18.386 32.529,-21.745Zm-876.857,-851.046c-14.85,-2.475 -16.087,-2.475 -31.821,1.768c-40.13,10.43 -65.411,46.318 -65.411,92.636c0,16.264 5.48,38.716 13.259,54.096c4.95,9.546 6.011,10.077 12.375,5.834l4.243,-2.829l-4.066,-8.132c-8.662,-17.502 -12.375,-32.175 -12.375,-49.854c0.177,-26.518 6.541,-44.02 22.275,-59.93c26.341,-26.518 66.648,-28.462 90.868,-4.42c17.855,18.032 25.28,42.959 19.446,65.764c-8.662,34.296 -28.993,53.566 -117.739,112.436c-17.148,11.314 -37.125,31.291 -42.429,42.605c-6.187,12.552 -6.364,37.125 -0.354,48.262c9.723,18.032 27.579,30.761 44.02,30.937c34.12,0.354 60.284,-33.236 53.743,-68.77c-1.945,-9.9 -11.137,-31.468 -16.441,-38.539c-2.475,-3.005 -2.829,-3.005 -8.309,-0.354l-5.657,3.005l3.359,4.773c11.668,16.441 16.971,37.125 13.789,53.92c-1.591,9.016 -11.137,21.921 -19.446,26.695c-15.027,8.839 -29.523,7.425 -42.075,-3.889c-9.546,-8.662 -13.789,-18.032 -13.789,-31.291c0,-21.391 11.314,-35.357 49.854,-61.875c86.271,-59.577 103.95,-77.432 113.673,-114.911c11.491,-44.55 -17.325,-90.868 -60.991,-97.939Z"/></g></svg>